<?xml version="1.0" encoding="UTF-8"?>
<svg width="20px" height="20px" viewBox="0 0 20 20" version="1.1" xmlns="http://www.w3.org/2000/svg" xmlns:xlink="http://www.w3.org/1999/xlink">
    <!-- Generator: Sketch 42 (36781) - http://www.bohemiancoding.com/sketch -->
    <title>Capa_1</title>
    <desc>Created with Sketch.</desc>
    <defs></defs>
    <g id="Page-2" stroke="none" stroke-width="1" fill="none" fill-rule="evenodd">
        <g id="first-page" transform="translate(-1381.000000, -603.000000)" fill-rule="nonzero" fill="#FFFFFF">
            <g id="icons" transform="translate(1381.000000, 603.000000)">
                <g id="003-black">
                    <g id="Capa_1">
                        <path d="M0,19.815 C0,19.815 6.44222222,-0.779444444 19.8544444,0.065 C19.8544444,0.065 18.1911111,2.75888889 13.9927778,3.62944444 C13.9927778,3.62944444 15.9472222,3.86777778 17.5311111,3.33944444 C17.5311111,3.33944444 16.5805556,6.40333333 11.4061111,6.82444444 C11.4061111,6.82444444 14.2577778,7.56388889 15.525,7.14111111 C15.525,7.14111111 15.1811111,9.425 9.91277778,10.56 C9.60055556,10.6266667 7.49777778,11.1527778 9.18722222,11.3644444 C9.18722222,11.3644444 11.6155556,11.7883333 12.2505556,11.5761111 C12.2505556,11.5761111 10.1705556,14.6911111 5.06833333,14.4272222 C4.56666667,14.4011111 4.32833333,14.4272222 4.32833333,14.4272222 L0,19.815 Z" id="Shape"></path>
                    </g>
                </g>
            </g>
        </g>
    </g>
</svg>