<?xml version="1.0" encoding="UTF-8"?>
<svg width="20px" height="20px" viewBox="0 0 20 20" version="1.1" xmlns="http://www.w3.org/2000/svg" xmlns:xlink="http://www.w3.org/1999/xlink">
    <!-- Generator: Sketch 42 (36781) - http://www.bohemiancoding.com/sketch -->
    <title>Capa_1</title>
    <desc>Created with Sketch.</desc>
    <defs></defs>
    <g id="Page-2" stroke="none" stroke-width="1" fill="none" fill-rule="evenodd">
        <g id="first-page" transform="translate(-1479.000000, -603.000000)" fill-rule="nonzero" fill="#FFFFFF">
            <g id="icons" transform="translate(1381.000000, 603.000000)">
                <g id="004-dribbble-logo" transform="translate(98.000000, 0.000000)">
                    <g id="Capa_1">
                        <path d="M9.97911833,0 C4.467471,0.000417633411 0,4.46816705 0,9.9799536 C0,15.4907657 4.467471,19.9590255 9.97911833,19.9590255 C15.4907657,19.9590255 19.9584223,15.4907657 19.9590255,9.9799536 C19.9584223,4.46816705 15.4907657,0.000417633411 9.97911833,0 Z M16.0936891,5.17429234 C17.0673782,6.41071926 17.6770302,7.94171694 17.7539211,9.61364269 C16.6273318,9.37452436 15.562877,9.25814385 14.5705336,9.25814385 L14.5705336,9.25791183 L14.5632019,9.25791183 C13.7642691,9.25791183 13.014478,9.33044084 12.3077958,9.45577726 C12.1360557,9.03484919 11.961949,8.63053364 11.7865429,8.24329466 C13.3603712,7.55299304 14.8709977,6.57006961 16.0936891,5.17429234 Z M9.97911833,2.19396752 C11.8155916,2.19396752 13.5003248,2.83600928 14.8341531,3.90487239 C13.8134571,5.12686775 12.4662181,6.01187935 11.0108121,6.63679814 C9.98816705,4.65930394 9,3.24464037 8.32450116,2.37976798 C8.85921114,2.26111369 9.41113689,2.19396752 9.97911833,2.19396752 Z M6.54018561,3.00556845 C7.08060325,3.64389791 8.16259861,5.04793503 9.31823666,7.2400464 C6.96793503,7.93967517 4.6012529,8.10403712 3.16928074,8.10361949 C3.12844548,8.10361949 3.08807425,8.10361949 3.04844548,8.10320186 L3.04714617,8.10320186 C2.80598608,8.10320186 2.59860789,8.09939675 2.42547564,8.09410673 C2.98412993,5.85865429 4.51559165,4.00728538 6.54018561,3.00556845 Z M2.19331787,9.9799536 C2.19331787,9.94334107 2.19461717,9.90612529 2.19679814,9.86779582 C2.41911833,9.87600928 2.70422274,9.88306265 3.04737819,9.88306265 L3.04932715,9.88306265 C4.61438515,9.87285383 7.34696056,9.74208817 10.1162413,8.86779582 C10.2671926,9.19786543 10.4166125,9.54153132 10.5643155,9.89832947 C8.7149884,10.5168445 7.25846868,11.5022274 6.18116009,12.4835267 C5.14403712,13.4281671 4.44334107,14.3638051 4.03392111,14.9883991 C2.88825986,13.6319722 2.19392111,11.8888167 2.19331787,9.9799536 Z M9.97911833,17.7660789 C8.24645012,17.7660789 6.64946636,17.1930394 5.35392111,16.2315081 C5.62928074,15.7780046 6.21967517,14.9073782 7.15981439,14.0077494 C8.12709977,13.0808353 9.46236659,12.1266357 11.2057541,11.5587935 C11.7983295,13.2199072 12.3345244,15.1187935 12.7429698,17.2562877 C11.8825058,17.5839443 10.952761,17.7660789 9.97911833,17.7660789 Z M14.3856613,16.3835267 C13.9906265,14.4503944 13.4940139,12.707239 12.9487239,11.1516009 C13.4543852,11.0790719 13.9851972,11.0381439 14.5454756,11.0381439 L14.5656148,11.0381439 L14.5669142,11.0381439 L14.5682135,11.0381439 C15.4968445,11.0381439 16.5173086,11.1535499 17.6239907,11.4050116 C17.2408817,13.4637123 16.0484455,15.2367517 14.3856613,16.3835267 Z" id="Dribbble"></path>
                    </g>
                </g>
            </g>
        </g>
    </g>
</svg>