<?xml version="1.0" encoding="UTF-8"?>
<svg width="20px" height="16px" viewBox="0 0 20 16" version="1.1" xmlns="http://www.w3.org/2000/svg" xmlns:xlink="http://www.w3.org/1999/xlink">
    <!-- Generator: Sketch 42 (36781) - http://www.bohemiancoding.com/sketch -->
    <title>Capa_1</title>
    <desc>Created with Sketch.</desc>
    <defs></defs>
    <g id="Page-2" stroke="none" stroke-width="1" fill="none" fill-rule="evenodd">
        <g id="first-page" transform="translate(-1512.000000, -605.000000)" fill-rule="nonzero" fill="#FFFFFF">
            <g id="icons" transform="translate(1381.000000, 603.000000)">
                <g id="005-message-closed-envelope" transform="translate(131.000000, 2.000000)">
                    <g id="Capa_1">
                        <path d="M17.5855875,0.0493472585 L2.36835509,0.0493472585 C1.06245431,0.0493472585 0,1.06966057 0,2.32375979 L0,12.9303916 C0,14.1844909 1.06245431,15.2048042 2.36835509,15.2048042 L17.5855875,15.2048042 C18.8914883,15.2048042 19.9538903,14.1844909 19.9538903,12.9303916 L19.9538903,2.32375979 C19.9538903,1.06966057 18.8914883,0.0493472585 17.5855875,0.0493472585 Z M17.5855875,13.1968668 L2.36835509,13.1968668 C2.17639687,13.1968668 2.00804178,13.072376 2.00804178,12.9303916 L2.00804178,3.72631854 L8.89039164,9.5367624 C9.03148825,9.65592689 9.21091384,9.72151436 9.3956658,9.72151436 L10.5580157,9.72156658 C10.7426632,9.72156658 10.9221932,9.65592689 11.063342,9.5367624 L17.9460052,3.72610966 L17.9460052,12.9304961 C17.9459008,13.072376 17.7774935,13.1968668 17.5855875,13.1968668 Z M9.97697128,7.72778068 L3.28302872,2.0572846 L16.6709138,2.0572846 L9.97697128,7.72778068 Z" id="Shape"></path>
                    </g>
                </g>
            </g>
        </g>
    </g>
</svg>