<?xml version="1.0" encoding="UTF-8"?>
<svg width="20px" height="20px" viewBox="0 0 20 20" version="1.1" xmlns="http://www.w3.org/2000/svg" xmlns:xlink="http://www.w3.org/1999/xlink">
    <!-- Generator: Sketch 42 (36781) - http://www.bohemiancoding.com/sketch -->
    <title>Capa_1</title>
    <desc>Created with Sketch.</desc>
    <defs></defs>
    <g id="Page-2" stroke="none" stroke-width="1" fill="none" fill-rule="evenodd">
        <g id="first-page" transform="translate(-1414.000000, -603.000000)" fill-rule="nonzero" fill="#FFFFFF">
            <g id="icons" transform="translate(1381.000000, 603.000000)">
                <g id="002-github-logo" transform="translate(33.000000, 0.000000)">
                    <g id="Capa_1">
                        <path d="M18.6392711,4.99193622 C17.7459681,3.46136674 16.5342597,2.24961276 15.0038269,1.35640091 C13.4731663,0.463143508 11.8021412,0.0166287016 9.9895672,0.0166287016 C8.17722096,0.0166287016 6.5056492,0.463280182 4.97530752,1.35640091 C3.44473804,2.2495672 2.23307517,3.46136674 1.33977221,4.99193622 C0.446605923,6.52246014 0,8.1938041 0,10.0059226 C0,12.1826879 0.635079727,14.1400911 1.90555809,15.8786333 C3.17589977,17.6173121 4.81699317,18.82041 6.82870159,19.4880638 C7.06287016,19.5315262 7.23621868,19.5009567 7.34892938,19.3971298 C7.46168565,19.2931663 7.51799544,19.1629613 7.51799544,19.0070615 C7.51799544,18.9810478 7.5157631,18.7470159 7.51143508,18.3046925 C7.50697039,17.862369 7.50487472,17.476492 7.50487472,17.1472437 L7.20569476,17.1989977 C7.01494305,17.2339408 6.77430524,17.2487472 6.48378132,17.2445558 C6.19339408,17.2405011 5.89193622,17.2100683 5.57981777,17.1534852 C5.26756264,17.0974032 4.97712984,16.9673349 4.70829157,16.7635535 C4.43958998,16.5597722 4.24883827,16.2930296 4.136082,15.9637358 L4.00601367,15.6644191 C3.91931663,15.4651481 3.7828246,15.2437813 3.59635535,15.001139 C3.4098861,14.7582688 3.22132118,14.5936219 3.03056948,14.5069248 L2.93949886,14.4417312 C2.87881549,14.3984055 2.82250569,14.3461503 2.7704328,14.2855125 C2.71840547,14.2248747 2.6794533,14.1641913 2.65343964,14.1034169 C2.62738041,14.0425968 2.64897494,13.9927107 2.71845103,13.9535763 C2.78792711,13.9144419 2.91348519,13.8954442 3.09567198,13.8954442 L3.35571754,13.9343052 C3.52915718,13.9690661 3.74369021,14.0728929 3.99958998,14.2464237 C4.25535308,14.4198178 4.46560364,14.6452392 4.63038724,14.9225968 C4.82993166,15.2782232 5.07034169,15.5492027 5.35230068,15.735672 C5.63403189,15.9221412 5.91808656,16.0152164 6.20419134,16.0152164 C6.49029613,16.0152164 6.73740319,15.9935308 6.94560364,15.9503872 C7.15357631,15.9070159 7.34870159,15.8418223 7.53088838,15.7551708 C7.60892938,15.1739408 7.8214123,14.727426 8.1681549,14.4153075 C7.67394077,14.3633713 7.22961276,14.2851481 6.83494305,14.181139 C6.44050114,14.0769932 6.03289294,13.9079727 5.6123918,13.6736219 C5.19166287,13.43959 4.84264237,13.1489749 4.56523918,12.8022779 C4.28779043,12.4553986 4.06009112,12 3.88246014,11.436492 C3.70473804,10.8727563 3.61585421,10.2224601 3.61585421,9.48542141 C3.61585421,8.43599089 3.95845103,7.54296128 4.64350797,6.80583144 C4.32259681,6.01685649 4.35289294,5.1323918 4.73448747,4.15252847 C4.98596811,4.07439636 5.35890661,4.13302961 5.85312073,4.32806378 C6.34742597,4.52318907 6.70933941,4.69034169 6.93922551,4.82892938 C7.16911162,4.96747153 7.35330296,5.08487472 7.49207289,5.18009112 C8.29867882,4.95471526 9.13107062,4.84200456 9.98947608,4.84200456 C10.8478815,4.84200456 11.6804556,4.95471526 12.4871071,5.18009112 L12.9813667,4.86806378 C13.3193622,4.65986333 13.7184966,4.46906606 14.1778132,4.29562642 C14.6374032,4.1222779 14.9888383,4.07453303 15.231754,4.15266515 C15.6218223,5.13257403 15.6565831,6.01699317 15.3355809,6.80596811 C16.0205923,7.54309795 16.3633257,8.43635535 16.3633257,9.48555809 C16.3633257,10.2225968 16.274123,10.8749431 16.0966743,11.4430068 C15.9189977,12.0111617 15.6893394,12.4661048 15.4076082,12.8087927 C15.1255581,13.1514351 14.7743052,13.4397722 14.3538041,13.6737585 C13.9332118,13.9079271 13.525467,14.0769476 13.1310251,14.1810934 C12.7364009,14.2852392 12.2920729,14.363508 11.7978588,14.4155353 C12.2486105,14.8056036 12.4740319,15.4213212 12.4740319,16.2624146 L12.4740319,19.006697 C12.4740319,19.1625968 12.528246,19.2927563 12.6367654,19.3967654 C12.7451481,19.5005923 12.9163098,19.5311617 13.1504784,19.4876538 C15.1624601,18.8200911 16.8035535,17.6169476 18.0738497,15.8782688 C19.3440091,14.1397267 19.9793166,12.1823235 19.9793166,10.0055581 C19.978861,8.19366743 19.5320273,6.52246014 18.6392711,4.99193622 Z" id="Shape"></path>
                    </g>
                </g>
            </g>
        </g>
    </g>
</svg>