<?xml version="1.0" encoding="UTF-8"?>
<svg width="20px" height="17px" viewBox="0 0 20 17" version="1.1" xmlns="http://www.w3.org/2000/svg" xmlns:xlink="http://www.w3.org/1999/xlink">
    <!-- Generator: Sketch 42 (36781) - http://www.bohemiancoding.com/sketch -->
    <title>Group</title>
    <desc>Created with Sketch.</desc>
    <defs></defs>
    <g id="Page-2" stroke="none" stroke-width="1" fill="none" fill-rule="evenodd">
        <g id="first-page" transform="translate(-1447.000000, -605.000000)" fill-rule="nonzero" fill="#FFFFFF">
            <g id="icons" transform="translate(1381.000000, 603.000000)">
                <g id="006-weibo-website-logo" transform="translate(66.000000, 2.000000)">
                    <g id="Capa_1">
                        <g id="Group">
                            <path d="M16.1598047,8.34191406 C15.818125,8.12621094 15.435,7.95148438 15.01125,7.81769531 C14.9219531,7.7878125 14.8586328,7.765625 14.8214453,7.75070313 C14.7842969,7.73582031 14.7394922,7.70800781 14.6876563,7.66707031 C14.6355078,7.62609375 14.6186328,7.57957031 14.6375,7.52757813 C14.6562109,7.47554688 14.6727734,7.40125 14.6876563,7.30460938 C15.0219922,6.44960938 15.0219922,5.78789063 14.6876563,5.31949219 C14.3453906,4.86597656 13.7769141,4.63914063 12.9810938,4.63914063 C12.1855859,4.63914063 11.2710938,4.85855469 10.2377734,5.29714844 L10.1706641,5.31949219 C10.1263281,5.334375 10.0760547,5.34722656 10.0203906,5.35847656 C9.96449219,5.36972656 9.91054688,5.37148438 9.85855469,5.36410156 C9.80667969,5.35675781 9.76945313,5.33074219 9.74710938,5.28609375 C9.72476563,5.24144531 9.72859375,5.16710938 9.75832031,5.06300781 C10.0927344,3.98488281 10.0185156,3.20800781 9.53515625,2.73207031 C8.98503906,2.18191406 8.06871094,2.15589844 6.78605469,2.6540625 C5.50375,3.15234375 4.23425781,4.02960938 2.97761719,5.28625 C2.02597656,6.23789063 1.29171875,7.19703125 0.775,8.16359375 C0.258242188,9.1303125 0,10.0408203 0,10.8960547 C0,11.6989453 0.241640625,12.4405859 0.724804688,13.1210156 C1.20820313,13.8014453 1.845625,14.3627344 2.63753906,14.8050781 C3.42925781,15.2472656 4.32339844,15.5932422 5.31964844,15.8423047 C6.3159375,16.0912109 7.33832031,16.2158203 8.38664063,16.2158203 C9.435,16.2158203 10.4405469,16.1007031 11.4032813,15.8702344 C12.3660156,15.6396484 13.2063281,15.33125 13.9236328,14.9445313 C14.64125,14.5580469 15.2676563,14.1212109 15.8028906,13.6340625 C16.3383984,13.1470703 16.7434375,12.6380469 17.0186719,12.1061328 C17.2937891,11.5746484 17.4314844,11.0559375 17.4314844,10.5505469 C17.4314844,10.0747656 17.3053125,9.64140625 17.0522266,9.25117188 C16.7996094,8.86042969 16.5020313,8.5575 16.1598047,8.34191406 Z M12.5188281,13.4560156 C11.4296094,14.3369922 10.0559375,14.8630078 8.39800781,15.0339844 C7.31246094,15.138125 6.29195313,15.0600391 5.33664063,14.7998047 C4.38128906,14.539375 3.60609375,14.1343359 3.01136719,13.5841406 C2.4165625,13.03375 2.08570313,12.4017188 2.01878906,11.6878906 C1.91460938,10.6024219 2.40726563,9.61921875 3.49648438,8.73816406 C4.58570313,7.85691406 5.959375,7.3309375 7.61734375,7.15996094 C8.70289063,7.05574219 9.72332031,7.13394531 10.6784766,7.39417969 C11.63375,7.654375 12.4091016,8.05957031 13.0039453,8.60972656 C13.5988281,9.16007813 13.9295313,9.79210938 13.9963672,10.5058203 C14.1003516,11.5914844 13.6080469,12.5746875 12.5188281,13.4560156 Z" id="Shape"></path>
                            <path d="M8.72144531,8.83304687 C7.93339844,8.63222656 7.15082031,8.70308594 6.37386719,9.04503906 C5.59683594,9.38699219 5.03375,9.90355469 4.68425781,10.5951953 C4.33480469,11.3012891 4.31054687,11.9984375 4.61171875,12.6861719 C4.91289062,13.3739453 5.46113281,13.8441406 6.25671875,14.0971484 C7.08195312,14.3646484 7.91480469,14.3201172 8.75488281,13.9630469 C9.59503906,13.6061328 10.1823047,13.0484375 10.5171875,12.2902344 C10.8515234,11.5465625 10.8422656,10.8384766 10.4891016,10.1655078 C10.1357422,9.49289062 9.54667969,9.04867187 8.72144531,8.83304687 Z M7.52808594,12.4464844 C7.36449219,12.6991406 7.1321875,12.8758594 6.83089844,12.9761328 C6.52980469,13.0766406 6.25265625,13.0673047 6,12.9483203 C5.74726562,12.8293359 5.58742187,12.6416406 5.52050781,12.385 C5.45355469,12.1287109 5.501875,11.8742187 5.66542969,11.6212891 C5.82148437,11.3757422 6.04460937,11.2048828 6.33453125,11.1083594 C6.62460937,11.0116797 6.8959375,11.0153125 7.14875,11.1194531 C7.40898437,11.2308203 7.57640625,11.416875 7.65074219,11.6769922 C7.72503906,11.9371875 7.68421875,12.1935547 7.52808594,12.4464844 Z M8.57632812,11.0967187 C8.52433594,11.1935156 8.44246094,11.2623437 8.33101562,11.3032422 C8.21949219,11.3441797 8.11160156,11.3458984 8.00757812,11.3088672 C7.78460937,11.2046094 7.73628906,11.0375391 7.86261719,10.8070312 C7.91464844,10.7102344 7.99457031,10.6415625 8.10230469,10.6005078 C8.21003906,10.5596094 8.31597656,10.5578516 8.42011719,10.5950391 C8.51675781,10.6320312 8.58179687,10.7010156 8.61535156,10.8014062 C8.64878906,10.9015625 8.63585937,11.0003516 8.57632812,11.0967187 Z" id="Shape"></path>
                            <path d="M15.9368359,6.20640625 C16.0189453,6.36628906 16.1451172,6.47589844 16.3162109,6.53542969 C16.4873437,6.58746094 16.6525391,6.57265625 16.8124219,6.49078125 C16.9723047,6.40910156 17.0820312,6.28269531 17.1415625,6.11160156 C17.2826953,5.69535156 17.3070312,5.25839844 17.21375,4.80125 C17.1209766,4.3440625 16.9183594,3.940625 16.6063281,3.59117187 C16.2940625,3.24167969 15.9182812,2.99816406 15.4798047,2.86054687 C15.0410937,2.72300781 14.5987109,2.70261719 14.1527734,2.79925781 C13.9740625,2.83648437 13.8366016,2.93132812 13.7398437,3.08371094 C13.6433203,3.23605469 13.6136719,3.40152344 13.6509766,3.57992187 C13.6806641,3.75839844 13.7734375,3.8959375 13.9294141,3.99257812 C14.0857031,4.08921875 14.2529297,4.11894531 14.4315234,4.081875 C14.9000781,3.98519531 15.2975,4.11535156 15.6248828,4.4721875 C15.9521484,4.82898437 16.0411328,5.24164062 15.8925391,5.71011719 C15.8400391,5.88109375 15.8551562,6.0465625 15.9368359,6.20640625 Z" id="Shape"></path>
                            <path d="M19.8795703,4.25460938 C19.6897656,3.31417969 19.2717187,2.48699219 18.6248437,1.77328125 C17.9778906,1.0521875 17.2046875,0.552148438 16.3047266,0.273164063 C15.4051953,-0.005703125 14.4983594,-0.0483984375 13.5835937,0.144882813 C13.3753125,0.18953125 13.2135547,0.299140625 13.0983203,0.473945313 C12.9830859,0.648789063 12.9477734,0.84015625 12.9925781,1.04835938 C13.0371094,1.2565625 13.1484375,1.41824219 13.3271484,1.53347656 C13.5053516,1.64871094 13.6987891,1.6840625 13.9067969,1.63941406 C14.5537891,1.50566406 15.1970312,1.53730469 15.8363281,1.73425781 C16.4758203,1.93128906 17.0260547,2.28621094 17.4871094,2.79925781 C17.9479297,3.30488281 18.245625,3.89214844 18.3794531,4.56140625 C18.5133984,5.23046875 18.47625,5.86992188 18.2679687,6.47957031 C18.2085937,6.68042969 18.2270703,6.87371094 18.3238672,7.05960938 C18.4203906,7.24546875 18.5690234,7.37179688 18.7698047,7.43878906 C18.970625,7.50554688 19.1639062,7.49078125 19.3497266,7.39414063 C19.5356641,7.2975 19.6621094,7.14882813 19.7291016,6.94804688 C20.0189844,6.09300781 20.0691016,5.19519531 19.8795703,4.25460938 Z" id="Shape"></path>
                        </g>
                    </g>
                </g>
            </g>
        </g>
    </g>
</svg>