<?xml version="1.0" encoding="UTF-8" standalone="no"?>
<!-- Created with Inkscape (http://www.inkscape.org/) -->

<svg
   xmlns:dc="http://purl.org/dc/elements/1.1/"
   xmlns:cc="http://creativecommons.org/ns#"
   xmlns:rdf="http://www.w3.org/1999/02/22-rdf-syntax-ns#"
   xmlns:svg="http://www.w3.org/2000/svg"
   xmlns="http://www.w3.org/2000/svg"
   xmlns:sodipodi="http://sodipodi.sourceforge.net/DTD/sodipodi-0.dtd"
   xmlns:inkscape="http://www.inkscape.org/namespaces/inkscape"
   width="1024"
   height="1024"
   id="svg2"
   version="1.1"
   inkscape:version="0.48.4 r9939"
   sodipodi:docname="empty.svg">
  <defs
     id="defs4" />
  <sodipodi:namedview
     id="base"
     pagecolor="#ffffff"
     bordercolor="#666666"
     borderopacity="1.0"
     inkscape:pageopacity="0.0"
     inkscape:pageshadow="2"
     inkscape:zoom="0.86816406"
     inkscape:cx="336.11432"
     inkscape:cy="498.95814"
     inkscape:document-units="px"
     inkscape:current-layer="layer1"
     showgrid="true"
     showguides="true"
     inkscape:guide-bbox="true"
     inkscape:window-width="1920"
     inkscape:window-height="1125"
     inkscape:window-x="-9"
     inkscape:window-y="-9"
     inkscape:window-maximized="1"
     objecttolerance="10000"
     gridtolerance="1">
    <inkscape:grid
       type="xygrid"
       id="grid2985"
       empspacing="4"
       visible="true"
       enabled="true"
       snapvisiblegridlinesonly="true"
       spacingx="32px"
       spacingy="32px" />
    <sodipodi:guide
       orientation="0,1"
       position="528,512"
       id="guide2987" />
    <sodipodi:guide
       orientation="1,0"
       position="512,448"
       id="guide2989" />
  </sodipodi:namedview>
  <metadata
     id="metadata7">
    <rdf:RDF>
      <cc:Work
         rdf:about="">
        <dc:format>image/svg+xml</dc:format>
        <dc:type
           rdf:resource="http://purl.org/dc/dcmitype/StillImage" />
        <dc:title></dc:title>
      </cc:Work>
    </rdf:RDF>
  </metadata>
  <g
     inkscape:label="Layer 1"
     inkscape:groupmode="layer"
     id="layer1"
     transform="translate(0,-28.3622)">
    <path
       style="fill:#000000;fill-opacity:1;stroke:none"
       d="M 128 32 C 74.816 32 32 74.816 32 128 L 32 896 C 32 949.184 74.816 992 128 992 L 896 992 C 949.184 992 992 949.184 992 896 L 992 128 C 992 74.816 949.184 32 896 32 L 128 32 z M 160 96 L 864 96 C 899.456 96 928 124.544 928 160 L 928 864 C 928 899.456 899.456 928 864 928 L 160 928 C 124.544 928 96 899.456 96 864 L 96 160 C 96 124.544 124.544 96 160 96 z "
       transform="translate(0,28.3622)"
       id="rect3018" />
    <path
       style="fill:#000000;fill-opacity:1;stroke:none"
       d="m 184.72133,246.6747 57.34181,119.03125 c -53.06361,21.72615 -103.86681,48.5908 -149.321081,87.625 l 0,358.59375 459.456711,-127.125 -133.83941,-277.625 c 0,0 53.56711,-16.34925 191.77788,-17.59375 163.51811,-1.47238 261.71603,98.22329 254.36398,104.625 L 677.33957,540.3622 615.35013,417.5497 c -53.01563,-2.03706 -106.04036,0.0432 -159.05599,7.21875 l 127.46461,253.375 345.05574,-96.5625 0,-210.1875 c 0,0 -85.12737,-34.72635 -214.51363,-50.15625 -129.38626,-15.4299 -257.53468,-2.85892 -334.59855,7.75 l -41.16928,-81.5 c -65.71328,-1.90047 -98.71677,1.08797 -153.8117,-0.8125 z m 95.71623,199.25 84.50536,177.375 c 0,0 -172.40582,45.07319 -181.72893,34.5625 -15.85969,-17.87988 -11.72331,-80.59151 4.61623,-117.5 28.33308,-64 92.60734,-94.4375 92.60734,-94.4375 z"
       id="path4457"
       inkscape:connector-curvature="0" />
  </g>
</svg>
