<?xml version="1.0" encoding="UTF-8" standalone="no"?>
<!-- Created with Inkscape (http://www.inkscape.org/) -->

<svg
   xmlns:dc="http://purl.org/dc/elements/1.1/"
   xmlns:cc="http://creativecommons.org/ns#"
   xmlns:rdf="http://www.w3.org/1999/02/22-rdf-syntax-ns#"
   xmlns:svg="http://www.w3.org/2000/svg"
   xmlns="http://www.w3.org/2000/svg"
   xmlns:sodipodi="http://sodipodi.sourceforge.net/DTD/sodipodi-0.dtd"
   xmlns:inkscape="http://www.inkscape.org/namespaces/inkscape"
   width="1024"
   height="1024"
   id="svg2"
   version="1.1"
   inkscape:version="0.48.4 r9939"
   sodipodi:docname="github.svg">
  <defs
     id="defs4" />
  <sodipodi:namedview
     id="base"
     pagecolor="#ffffff"
     bordercolor="#666666"
     borderopacity="1.0"
     inkscape:pageopacity="0.0"
     inkscape:pageshadow="2"
     inkscape:zoom="1.2277694"
     inkscape:cx="369.11438"
     inkscape:cy="496.40492"
     inkscape:document-units="px"
     inkscape:current-layer="layer1"
     showgrid="true"
     showguides="true"
     inkscape:guide-bbox="true"
     inkscape:window-width="1920"
     inkscape:window-height="1125"
     inkscape:window-x="-9"
     inkscape:window-y="-9"
     inkscape:window-maximized="1"
     objecttolerance="10000"
     gridtolerance="1">
    <inkscape:grid
       type="xygrid"
       id="grid2985"
       empspacing="4"
       visible="true"
       enabled="true"
       snapvisiblegridlinesonly="true"
       spacingx="32px"
       spacingy="32px" />
    <sodipodi:guide
       orientation="0,1"
       position="528,512"
       id="guide2987" />
    <sodipodi:guide
       orientation="1,0"
       position="512,448"
       id="guide2989" />
  </sodipodi:namedview>
  <metadata
     id="metadata7">
    <rdf:RDF>
      <cc:Work
         rdf:about="">
        <dc:format>image/svg+xml</dc:format>
        <dc:type
           rdf:resource="http://purl.org/dc/dcmitype/StillImage" />
        <dc:title></dc:title>
      </cc:Work>
    </rdf:RDF>
  </metadata>
  <g
     inkscape:label="Layer 1"
     inkscape:groupmode="layer"
     id="layer1"
     transform="translate(0,-28.3622)">
    <path
       style="fill:#000000;fill-opacity:1;stroke:none"
       d="M 128 32 C 74.816 32 32 74.816 32 128 L 32 896 C 32 949.184 74.816 992 128 992 L 896 992 C 949.184 992 992 949.184 992 896 L 992 128 C 992 74.816 949.184 32 896 32 L 128 32 z M 160 96 L 864 96 C 899.456 96 928 124.544 928 160 L 928 864 C 928 899.456 899.456 928 864 928 L 160 928 C 124.544 928 96 899.456 96 864 L 96 160 C 96 124.544 124.544 96 160 96 z "
       transform="translate(0,28.3622)"
       id="rect3018" />
    <path
       style="fill:#000000;fill-opacity:1;stroke:none"
       d="M 736.625,207.34375 C 683.70278,212.10546 648.34654,233.08189 615.09375,256 537.13592,241.89622 461.14494,239.19531 389.3125,260.3125 326.06641,218.92207 289.36172,210.37586 258.03125,208.5 229.1782,278.06703 243.87291,316.31727 251.40625,336.34375 205.60462,388.7034 196.97474,434.54878 203.3125,512 c 3.11044,21.05552 7.55786,39.52071 13.125,55.65625 -67.41171,-6.45759 -107.98196,-2.78974 -133.5,3.65625 l -0.28125,2.59375 c 44.82188,-4.81465 90.09954,-4.36227 135.65625,-1.09375 2.38659,6.42848 4.95306,12.45942 7.6875,18.125 -67.38283,-2.89043 -111.50219,5.51965 -137.15625,12 l 3.75,4.03125 c 51.79313,-9.80869 91.06422,-13.87943 135.96875,-10.9375 13.10281,25.14639 29.61238,42.46057 47.875,53.625 30.41223,21.45141 76.25351,41.42521 150.25,48.5 -10.97646,8.24289 -21.70489,17.76761 -31.8125,41.8125 -0.99669,4.25413 -1.84445,8.58537 -2.59375,12.96875 -13.73271,8.47773 -30.62198,15.56991 -67.15625,14.1875 -43.03396,-8.88499 -54.44064,-41.79959 -69.125,-57.59375 -12.56043,-17.07762 -30.58718,-29.06646 -55.5625,-31.09375 -10.53102,-0.85482 -19.78762,1.81016 -20.1875,6.90625 -1.20186,15.3166 30.84727,25.51301 39.75,39.1875 22.05765,28.94366 25.21345,60.501 47.8125,79.46875 17.13882,14.38489 38.33928,23.1296 65.65625,23.59375 18.11265,2.13218 36.2311,-1.71329 54.34375,-5.8125 0.12999,31.19765 1.87759,63.21678 1,93.78125 -10.00744,26.08506 -16.74692,14.84006 -24.8125,18.59375 l 67.75,2.65625 c 10.51306,-41.64101 1.62136,-98.46108 3.875,-144.84375 5.10383,-16.19565 10.20867,-22.15924 15.3125,-27.71875 l -0.28125,177.90625 51.59375,1.78125 -0.15625,-183.28125 13.9375,-0.28125 1.375,180.125 51.625,1.71875 c -1.15185,-51.96647 -2.3169,-96.4058 -3.46875,-175.9375 5.48346,5.1311 9.18326,5.44256 16.125,27.34375 L 583.125,928 592.0625,937.625 660,957.1875 c 0,0 -24.64824,-32.5139 -27.68551,-41.2118 -1.88092,-5.38641 -1.55856,-44.39404 -3.97074,-150.00695 -0.33857,-15.41551 -5.92563,-41.24731 -17.28125,-50.65625 l -21.875,-18.125 c 4.60065,-0.30072 9.21185,-0.59071 13.8125,-0.875 40.20585,-5.6198 81.11723,-9.55663 116.90625,-32.84375 12.47728,-10.94422 42.04903,-22.62189 62.53125,-69.4375 52.0402,-5.47668 119.85559,4.55896 153.59375,11.78125 l 0.875,-4.90625 C 903.84761,592.80825 845.92916,585.03463 784.5,589.1875 c 2.21675,-5.50038 4.31946,-11.45077 6.25,-17.90625 43.8447,-5.86661 102.98903,-7.4029 147.59375,-0.625 L 942.0625,565.5 c -66.49406,-6.75871 -124.04907,-4.31351 -150.15625,1.71875 4.31879,-15.45666 7.73637,-33.6604 9.78125,-55.21875 5.87172,-64.29309 0.90883,-137.24717 -53.5625,-184.875 8.34568,-39.931 7.67334,-79.85024 -11.5,-119.78125 z m -525.96875,476 c 4.77942,0 8.65625,2.86386 8.65625,6.40625 0,3.54239 -3.87683,6.40625 -8.65625,6.40625 -4.77942,0 -8.65625,-2.86386 -8.65625,-6.40625 0,-3.54239 3.87683,-6.40625 8.65625,-6.40625 z m 22.28125,12.71875 c 4.77942,0 8.65625,2.86386 8.65625,6.40625 0,3.54239 -3.87683,6.4375 -8.65625,6.4375 -4.77942,0 -8.65625,-2.89511 -8.65625,-6.4375 0,-3.54239 3.87683,-6.40625 8.65625,-6.40625 z m 14.25,16.09375 c 4.77942,0 8.65625,2.86386 8.65625,6.40625 0,3.54239 -3.87683,6.40625 -8.65625,6.40625 -4.77942,0 -8.65625,-2.86386 -8.65625,-6.40625 0,-3.54239 3.87683,-6.40625 8.65625,-6.40625 z m 12.5625,18.125 c 4.77942,0 8.65625,2.86386 8.65625,6.40625 0,3.54239 -3.87683,6.40625 -8.65625,6.40625 -4.77942,0 -8.65625,-2.86386 -8.65625,-6.40625 0,-3.54239 3.87683,-6.40625 8.65625,-6.40625 z m 14.125,18.125 c 4.77942,0 8.65625,2.86386 8.65625,6.40625 0,3.54239 -3.87683,6.40625 -8.65625,6.40625 -4.77942,0 -8.65625,-2.86386 -8.65625,-6.40625 0,-3.54239 3.87683,-6.40625 8.65625,-6.40625 z M 292,763.25 c 4.77942,0 8.65625,2.89511 8.65625,6.4375 0,3.54239 -3.87683,6.40625 -8.65625,6.40625 -4.77942,0 -8.65625,-2.86386 -8.65625,-6.40625 0,-3.54239 3.87683,-6.4375 8.65625,-6.4375 z m 80.84375,5.90625 c 4.77942,0 8.65625,2.89511 8.65625,6.4375 0,3.54239 -3.87683,6.40625 -8.65625,6.40625 -4.77942,0 -8.65625,-2.86386 -8.65625,-6.40625 0,-3.54239 3.87683,-6.4375 8.65625,-6.4375 z m -26.46875,4.5 c 4.77942,0 8.625,2.86386 8.625,6.40625 0,3.54239 -3.84558,6.40625 -8.625,6.40625 -4.77942,0 -8.65625,-2.86386 -8.65625,-6.40625 0,-3.54239 3.87683,-6.40625 8.65625,-6.40625 z m -27.09375,0.1875 c 4.77942,0 8.65625,2.86386 8.65625,6.40625 0,3.54239 -3.87683,6.4375 -8.65625,6.4375 -4.77942,0 -8.65625,-2.89511 -8.65625,-6.4375 0,-3.54239 3.87683,-6.40625 8.65625,-6.40625 z"
       transform="translate(0,28.3622)"
       id="path3016"
       inkscape:connector-curvature="0"
       sodipodi:nodetypes="ccccccccccccccccccccsscsccccccccccccccccccscsccccccccccccccsssssssssssssssssssssssssssssssssssssssssssss" />
  </g>
</svg>
