<?xml version="1.0" encoding="UTF-8" standalone="no"?>
<!-- Created with Inkscape (http://www.inkscape.org/) -->

<svg
   xmlns:dc="http://purl.org/dc/elements/1.1/"
   xmlns:cc="http://creativecommons.org/ns#"
   xmlns:rdf="http://www.w3.org/1999/02/22-rdf-syntax-ns#"
   xmlns:svg="http://www.w3.org/2000/svg"
   xmlns="http://www.w3.org/2000/svg"
   xmlns:sodipodi="http://sodipodi.sourceforge.net/DTD/sodipodi-0.dtd"
   xmlns:inkscape="http://www.inkscape.org/namespaces/inkscape"
   width="1024"
   height="1024"
   id="svg2"
   version="1.1"
   inkscape:version="0.48.2 r9819"
   sodipodi:docname="tao.svg"
   inkscape:export-filename="C:\wamp\www\OviliaBlog\image\tao.png"
   inkscape:export-xdpi="26.367188"
   inkscape:export-ydpi="26.367188">
  <defs
     id="defs4" />
  <sodipodi:namedview
     id="base"
     pagecolor="#ffffff"
     bordercolor="#666666"
     borderopacity="1.0"
     inkscape:pageopacity="0.0"
     inkscape:pageshadow="2"
     inkscape:zoom="0.46875"
     inkscape:cx="166.4"
     inkscape:cy="512"
     inkscape:document-units="px"
     inkscape:current-layer="layer1"
     showgrid="true"
     gridtolerance="10"
     inkscape:window-width="1366"
     inkscape:window-height="706"
     inkscape:window-x="-8"
     inkscape:window-y="-8"
     inkscape:window-maximized="1">
    <inkscape:grid
       type="xygrid"
       id="grid2985"
       empspacing="4"
       visible="true"
       enabled="true"
       snapvisiblegridlinesonly="true"
       spacingx="32px"
       spacingy="32px"
       color="#c400ff"
       opacity="0.1254902" />
  </sodipodi:namedview>
  <metadata
     id="metadata7">
    <rdf:RDF>
      <cc:Work
         rdf:about="">
        <dc:format>image/svg+xml</dc:format>
        <dc:type
           rdf:resource="http://purl.org/dc/dcmitype/StillImage" />
        <dc:title></dc:title>
      </cc:Work>
    </rdf:RDF>
  </metadata>
  <g
     inkscape:label="Layer 1"
     inkscape:groupmode="layer"
     id="layer1"
     transform="translate(0,-28.362183)">
    <path
       sodipodi:type="arc"
       style="fill:none;fill-opacity:1;stroke:none"
       id="path3898"
       sodipodi:cx="512"
       sodipodi:cy="512"
       sodipodi:rx="480"
       sodipodi:ry="480"
       d="m 992,512 a 480,480 0 1 1 -960,0 480,480 0 1 1 960,0 z"
       transform="translate(0,28.362183)" />
    <path
       style="fill:#444444;fill-opacity:1;stroke:none;stroke-width:4;stroke-linejoin:round;stroke-miterlimit:4;stroke-opacity:0.40000000000000002;stroke-dasharray:none"
       d="M 613.375 42.75 C 606.32038 43.569329 607.7116 43.393514 592.09375 45.21875 L 591.625 45.5625 C 598.00784 47.806831 604.28333 50.275443 610.40625 53.03125 C 620.73154 51.707321 630.97298 50.518108 641.40625 49.65625 C 632.16784 47.075859 622.82928 44.782484 613.375 42.75 z M 647.96875 51.53125 C 640.5102 53.254606 633.17388 55.54329 625.8125 57.625 C 624.53112 57.956008 623.24849 58.288053 621.96875 58.625 C 627.52076 61.492463 632.92983 64.597415 638.21875 67.875 C 640.46155 67.317047 642.67939 66.588881 644.90625 65.96875 C 654.9079 64.361329 665.02581 63.464543 675 61.6875 C 675.7457 61.554645 676.48294 61.369209 677.21875 61.1875 C 667.60419 57.662618 657.86034 54.447274 647.96875 51.53125 z M 688.34375 65.40625 C 672.45145 67.025938 656.51961 68.184243 640.59375 69.34375 C 707.55394 111.92556 752 186.76951 752 272 C 752 298.72582 747.6243 324.42737 739.5625 348.4375 C 744.0992 349.692 748.65302 350.91236 753.21875 352.0625 C 747.96696 352.94853 742.67862 353.76022 737.40625 354.59375 C 723.25303 393.21299 699.45808 427.15908 668.9375 453.5625 C 669.72079 453.70279 670.49813 453.85878 671.28125 454 C 670.65159 454.1033 670.00577 454.21704 669.375 454.3125 C 668.90314 454.38391 668.42544 454.41714 667.9375 454.4375 C 649.59699 470.12836 628.84873 483.08623 606.34375 492.71875 C 613.38262 493.2091 620.42366 493.65084 627.46875 494.0625 C 634.69977 496.16837 641.92093 498.30392 649.125 500.5 C 639.67185 498.95615 627.44612 497.00429 625.28125 496.65625 C 619.78981 495.74475 612.12019 494.46426 604.875 493.34375 C 579.11257 504.16722 551.06597 510.6161 521.65625 511.78125 C 521.6234 511.80448 521.59545 511.82046 521.5625 511.84375 C 520.53589 512.56921 521.34584 514.48462 521.9375 515.59375 C 523.62575 518.75859 532.45568 520.3603 535.0625 522.03125 C 536.88254 522.71254 537.16036 522.81849 538.21875 523.21875 C 521.93259 523.70411 505.62796 524.48636 489.375 525.5 C 487.0144 525.56724 484.67406 525.6945 482.3125 525.6875 C 480.88149 525.68345 479.46179 525.50575 478.03125 525.46875 C 477.31362 525.45015 476.50078 525.17951 475.875 525.53125 C 465.85959 531.16087 455.3128 536.14014 446.3125 543.28125 C 445.65356 543.80408 445.33335 544.24626 445.21875 544.625 C 431.16559 542.64003 417.17138 540.27406 403.15625 538.03125 C 392.10282 543.66587 381.54425 550.16002 371.5625 557.375 C 372.38441 557.48053 373.21049 557.57365 374.03125 557.6875 C 371.60235 558.71222 369.08813 559.85095 366.65625 561.03125 C 361.80029 564.73255 357.0864 568.60307 352.53125 572.65625 C 352.23419 574.09945 352.5297 575.57607 353.65625 577.0625 C 354.36448 577.99697 355.44948 578.55415 356.34375 579.3125 C 357.2788 579.91661 358.47192 580.6968 359.625 581.4375 C 356.29463 584.74403 351.59215 589.23538 343.78125 595.46875 C 343.11559 595.99997 344.98966 596.81165 345.8125 597.03125 C 347.11786 597.37959 348.49719 596.9837 349.84375 597.09375 C 354.28104 597.4564 358.6518 598.55245 363.125 598.59375 C 366.2861 599.3672 383.31351 603.52536 385.6875 604.03125 C 390.48093 605.05271 395.33823 605.72903 400.125 606.78125 C 406.05456 608.08467 411.9502 609.55335 417.84375 611.03125 C 395.65946 609.40678 373.42625 608.37636 351.1875 608.40625 C 344.053 608.47875 336.88453 608.70184 329.75 608.40625 C 328.82906 608.3681 327.91678 608.25165 327 608.15625 C 326.61752 608.11644 326.18041 607.81416 325.84375 608 C 322.48074 609.85632 319.16908 611.76451 315.84375 613.6875 C 306.0151 627.60177 297.63086 642.61949 290.90625 658.5 C 295.84859 659.32161 300.80317 660.08638 305.75 660.8125 C 330.88448 663.21956 355.65182 668.24524 380.53125 672.375 C 387.38932 673.51338 394.282 674.55654 401.15625 675.59375 C 388.98709 674.81563 376.25563 674.1427 365.625 673.5 C 333.56043 671.56147 344.93372 672.06634 328.28125 671.40625 L 319.4375 669.75 C 315.37639 669.26652 311.28142 668.96976 307.25 668.28125 C 303.28515 667.6041 299.40517 666.48277 295.46875 665.65625 C 293.17669 665.17499 290.86662 664.72813 288.5625 664.28125 C 277.88658 691.45428 272 721.03873 272 752 C 272 757.67438 272.20636 763.29907 272.59375 768.875 C 274.75521 769.1995 276.93527 769.53306 279.09375 769.875 C 284.9351 770.89532 290.73972 771.99266 296.59375 772.9375 C 323.97108 777.3562 307.71398 774.1618 336.5625 779.03125 C 360.29857 783.03775 383.91914 787.75122 407.625 791.9375 C 420.02405 794.24258 432.46858 796.18191 444.9375 798.09375 C 441.29144 797.65799 437.64328 797.23769 434 796.78125 C 425.76081 795.67533 417.52783 794.5181 409.28125 793.46875 C 401.45236 792.47255 393.61232 791.34019 385.75 790.65625 C 372.66088 789.51764 359.54563 789.15628 346.40625 788.875 C 321.99029 784.2987 297.57931 779.67952 273.125 775.3125 C 276.99683 815.46642 290.77566 852.72418 311.96875 884.625 C 318.1508 885.14899 324.32404 885.86242 330.4375 886.625 C 341.2832 887.62388 352.17035 888.45048 363.03125 889.4375 C 379.82374 893.43502 396.61208 897.41424 413.40625 901.40625 C 424.14411 904.13655 434.99521 906.36052 445.84375 908.625 C 445.06927 908.50522 444.30751 908.35839 443.53125 908.25 C 426.10576 905.81678 408.42825 905.15647 391.125 901.75 C 379.66338 899.63199 368.26116 897.11027 356.78125 895.09375 C 342.74785 892.6287 328.55764 890.96403 314.53125 888.40625 C 335.01364 918.00308 361.95019 942.76736 393.34375 960.65625 C 394.99308 960.9494 396.64244 961.22199 398.28125 961.5625 C 402.33509 962.40479 406.28941 963.6776 410.3125 964.65625 C 423.96503 967.97736 423.79217 967.77541 437.625 970.5 C 441.52017 971.48948 445.43907 972.3531 449.375 973.125 C 432.87678 970.71764 416.28109 968.80313 400.1875 964.40625 C 433.57972 982.02112 471.62168 992 512 992 C 576.99548 992 638.9664 979.0651 695.5 955.65625 C 697.28961 956.38398 701.30095 957.97958 685.5 951.59375 C 664.05565 944.67161 643.55665 935.1668 622.21875 927.96875 C 610.85747 924.13618 596.08097 920.07707 584.59375 916.8125 C 566.8579 910.88187 548.94073 905.61707 530.875 900.875 C 524.27072 897.07069 517.59485 893.36757 510.96875 889.65625 C 507.86372 887.7868 504.73058 885.96232 501.625 884.09375 C 519.03121 887.72168 536.44496 891.25981 553.875 894.78125 C 593.92696 902.1097 633.57611 911.37265 673.25 920.46875 C 684.89692 922.96925 696.32177 926.34233 707.90625 929.09375 C 729.34426 934.18547 716.89384 930.5645 736.5625 935.8125 C 736.86492 935.89319 736.92641 935.92195 737.21875 936 C 800.1325 902.51223 854.70595 855.4121 897.03125 798.65625 C 890.71844 797.36922 884.40402 795.938 878.09375 794.8125 C 873.62994 793.75522 854.5499 789.18124 850.5 788.46875 C 845.31195 787.55603 840.03846 787.06831 834.8125 786.40625 C 825.88744 785.27556 816.97164 784.19381 808.03125 783.1875 C 805.85455 782.839 803.67195 782.5004 801.5 782.125 C 796.57475 781.27373 791.68328 780.25918 786.78125 779.28125 C 772.46665 775.55382 758.14631 771.87862 743.875 768 C 693.93994 754.72055 643.97122 741.43209 593.1875 731.71875 C 588.5044 730.49841 583.83682 729.26641 579.15625 728.03125 C 564.76275 721.98727 550.62792 715.3139 536.71875 708.28125 C 535.20191 707.51432 534.38483 707.08029 533.1875 706.46875 C 564.39672 711.07754 595.3799 717.26529 626.40625 722.90625 C 635.01158 724.30586 643.62949 725.59993 652.21875 727.09375 C 661.58565 729.40716 670.9398 731.74565 680.3125 734.03125 C 716.65612 742.75141 698.64121 738.36342 734.46875 747.125 C 743.05969 749.2702 751.59203 751.56604 760.21875 753.5625 C 783.01754 758.83879 786.71016 758.73914 808.65625 764.125 C 830.36991 772.01887 852.07739 779.88109 873.6875 788.0625 C 881.54336 791.66964 889.60373 794.79288 897.71875 797.71875 C 916.55344 772.33432 932.93779 745.03967 946.53125 716.15625 C 940.18747 712.82794 933.79295 709.56901 927.375 706.375 C 921.80389 703.79428 916.26979 701.18142 910.6875 698.625 C 907.32483 697.08506 901.06368 694.26647 894.90625 691.5 C 896.05953 691.75248 897.22241 691.994 898.375 692.25 C 916.19385 696.28543 933.95382 700.49406 951.71875 704.75 C 960.11944 685.61172 967.30962 665.81592 973.1875 645.46875 C 972.53579 645.27448 972.68543 645.31646 971.9375 645.09375 C 963.9293 642.70913 955.80295 640.74268 947.78125 638.40625 C 940.49148 635.95641 908.72083 625.21486 907.4375 624.78125 C 900.26813 622.1619 893.1489 619.40758 885.9375 616.90625 C 879.40916 614.64185 846.45918 604.00687 840.28125 601.9375 C 832.29825 599.2635 824.36554 596.40134 816.375 593.75 C 810.80028 591.90025 805.21567 590.08228 799.625 588.28125 C 806.71413 589.22951 813.80319 590.24128 820.875 591.34375 C 821.87455 591.45028 822.51067 591.52736 823.4375 591.625 C 831.23122 593.70527 839.02624 595.76935 846.8125 597.875 C 850.53481 598.89175 889.74784 609.60384 893.46875 610.65625 C 900.88257 612.75315 908.21183 615.13947 915.65625 617.125 C 959.02874 628.69302 917.24819 616.44401 959.90625 627.9375 C 965.52964 629.45263 971.07924 631.16418 976.65625 632.84375 C 982.0904 611.88808 986.1477 590.37109 988.71875 568.40625 C 983.78298 567.19026 978.8587 565.95814 973.90625 564.8125 C 936.12221 556.07199 972.94465 565.21127 933.03125 555.34375 C 915.5996 551.03424 908.47564 548.89381 890.875 545.28125 C 885.12432 544.10091 879.34031 543.07293 873.5625 542.03125 C 877.97857 542.25638 882.40369 542.50409 886.8125 542.84375 C 912.19883 544.79955 937.42218 548.87217 962.65625 552.125 C 972.0148 553.46424 980.79512 554.75767 990 555.90625 C 991.3012 541.56279 991.98879 527.05486 992 512.375 C 990.20913 511.81259 990.82708 512.00471 988.625 511.3125 C 983.20915 509.40957 977.84108 507.37844 972.375 505.625 C 966.45815 503.72697 960.45286 502.15687 954.5 500.375 C 944.26627 497.31174 933.99807 494.35587 923.71875 491.46875 C 930.13024 492.56312 936.56695 493.59745 943 494.53125 C 991.69872 501.60016 931.25175 491.85311 978.6875 499.6875 C 983.0992 500.44668 987.51006 501.24634 991.90625 502.09375 C 990.67481 441.2939 978.1375 383.26458 956.3125 330.03125 C 946.3305 326.66988 936.26567 323.47869 926.3125 320.09375 C 918.04299 317.58209 910.02753 314.4481 902.09375 311.09375 C 903.01514 311.00587 903.71056 310.96133 904.875 310.84375 C 908.25057 310.50291 910.4918 310.25053 912.15625 310.0625 C 925.79871 314.32905 939.18291 319.48243 952.5625 324.46875 C 953.1358 324.71371 953.70281 324.9302 954.28125 325.15625 C 947.77183 309.76625 940.48829 294.80142 932.46875 280.28125 C 931.63418 280.27874 930.80338 280.28568 929.96875 280.28125 C 927.77406 279.4112 925.60369 278.56773 923.6875 277.84375 C 925.31283 276.82652 927.13558 275.69407 929.1875 274.46875 C 920.24304 258.79257 910.44037 243.66263 899.84375 229.15625 C 899.00226 229.19299 898.15491 229.25296 897.3125 229.3125 C 895.3122 229.31697 893.31264 229.31269 891.3125 229.3125 C 889.88459 228.51539 888.47216 227.73495 887.0625 226.90625 C 885.72371 226.11922 885.14884 225.78534 884.25 225.25 C 884.51284 224.9831 884.75065 224.75103 885.03125 224.46875 C 887.65501 224.36281 890.31163 224.54266 892.9375 224.46875 C 894.04917 224.43747 895.15426 224.38169 896.28125 224.3125 C 857.46206 172.54511 808.4165 128.88475 752.15625 96.3125 C 744.41005 96.553969 736.69385 97.029956 728.96875 97.59375 C 728.43708 97.412569 727.90961 97.203635 727.375 97.03125 C 725.45464 96.412031 724.03191 95.975716 722.71875 95.5625 C 726.77766 95.094695 730.87536 94.756385 734.84375 93.8125 C 737.51565 93.176985 739.96307 91.79949 742.5625 90.90625 C 725.11601 81.332861 707.02384 72.788777 688.34375 65.40625 z M 689.71875 82.25 C 698.14137 82.246006 706.57528 82.567672 715 82.90625 C 707.8295 84.308625 700.63711 85.599993 693.4375 86.84375 C 692.6263 86.56981 691.81287 86.299956 691 86.03125 C 687.1217 84.941146 683.2702 83.778064 679.375 82.75 C 679.02319 82.657148 678.66557 82.58807 678.3125 82.5 C 682.11432 82.329785 685.91383 82.251804 689.71875 82.25 z M 782.875 138.84375 C 783.64913 139.06847 784.41015 139.2866 785.1875 139.5 C 787.50408 140.13596 789.83165 140.76907 792.15625 141.375 C 790.84501 141.36713 789.52999 141.34964 788.21875 141.34375 C 786.43649 140.50767 784.65847 139.67697 782.875 138.84375 z M 893.5 247.375 C 897.29376 247.70853 901.91917 248.14288 905.875 248.53125 C 903.3047 248.75937 900.75328 249.04194 898.1875 249.3125 C 896.59547 248.68722 895.00394 248.05019 893.40625 247.4375 C 893.44102 247.41223 893.46506 247.40039 893.5 247.375 z M 769.59375 248.25 C 773.89196 250.07064 778.2918 251.65969 782.875 252.78125 C 785.3843 253.68783 787.87295 254.63548 790.375 255.5625 C 778.17005 253.49386 765.96739 251.31704 753.71875 249.53125 C 754.80637 249.50331 755.88293 249.46014 756.96875 249.40625 C 758.27344 249.3415 764.01288 248.78596 769.59375 248.25 z M 801.96875 299.65625 C 806.14781 299.60392 797.75874 300.22497 807.375 300.15625 C 809.97958 301.01568 816.6606 303.23311 823.75 305.59375 C 821.84331 305.89888 819.93797 306.19502 818.03125 306.5 C 813.69746 305.1851 809.35736 303.85927 805 302.625 C 801.52963 301.64198 798.02956 300.78643 794.53125 299.90625 C 798.1455 299.76757 800.83469 299.67045 801.96875 299.65625 z M 789.84375 361.21875 C 790.168 361.30539 790.48822 361.41347 790.8125 361.5 C 790.82028 361.49973 790.89777 361.50035 790.90625 361.5 C 801.62522 364.36004 812.35015 367.2098 823 370.3125 C 806.79631 369.85559 790.54791 370.67011 774.34375 370.0625 C 773.56303 370.04761 772.78079 370.01599 772 370 C 766.28987 368.6559 760.59788 367.269 754.90625 365.84375 C 763.98836 364.40101 773.06129 363.08055 782.21875 362.0625 C 785.77695 361.66693 787.22968 361.50716 789.84375 361.21875 z M 923.90625 404.84375 C 928.88131 404.85984 933.86616 404.86644 938.84375 404.875 C 940.83382 405.48327 942.81829 406.0937 944.8125 406.6875 C 947.47523 407.61967 950.13178 408.59022 952.78125 409.5625 C 947.93548 408.78967 943.07146 408.10536 938.1875 407.59375 C 933.427 406.66642 928.65603 405.82259 923.90625 404.84375 z M 747.15625 412.1875 C 753.80822 413.94764 760.48245 415.67068 767.15625 417.34375 C 756.93774 417.50791 746.70771 417.63869 736.5 417.4375 C 727.24845 417.37021 721.54068 417.39785 713.6875 417.0625 C 724.82661 415.27578 735.96263 413.56474 747.15625 412.1875 z M 767.71875 434.0625 C 773.88852 434.02058 780.05172 434.05899 786.21875 434.21875 C 789.70541 434.30908 821.34353 436.1739 824.8125 436.375 C 832.60025 437.02336 840.39295 437.61587 848.1875 438.1875 C 848.60311 438.30044 849.02227 438.41699 849.4375 438.53125 C 851.933 439.21796 854.41903 439.93937 856.90625 440.65625 C 854.73948 440.65814 852.57301 440.65168 850.40625 440.65625 C 844.33772 440.66905 838.28432 440.5606 832.21875 440.75 C 825.7777 440.95114 819.34019 441.48059 812.90625 441.84375 C 800.40143 442.53277 795.90846 442.76345 794.375 442.84375 C 795.94395 442.79826 796.54383 442.89292 780.53125 444.0625 C 778.53397 443.60195 776.53193 443.16303 774.53125 442.71875 C 752.10798 438.07533 757.92646 439.30312 760.375 439.8125 C 761.0929 440.00616 756.83335 439.20452 739.09375 435.65625 C 737.57857 435.35318 736.0723 435.04862 734.5625 434.71875 C 745.60962 434.45575 756.67154 434.13755 767.71875 434.0625 z M 853.96875 457.9375 C 867.80249 457.92022 881.66639 457.92348 895.5 458 C 903.04317 458.02509 910.58207 458.0977 918.125 458.15625 C 921.53548 458.99877 924.95588 459.82098 928.375 460.625 C 934.2274 462.56179 940.07546 464.47423 945.875 466.5625 C 950.3798 468.18457 954.78671 470.0792 959.25 471.8125 C 954.49626 471.55863 949.72649 471.31448 944.96875 471.15625 C 938.8972 470.95428 932.82215 471.08933 926.75 470.90625 C 925.6985 470.87455 925.28576 470.87283 924.34375 470.84375 C 913.22881 468.76849 902.1321 466.5361 891.0625 464.3125 C 878.71248 462.09699 866.31533 460.17168 853.96875 457.9375 z M 757.25 482.46875 C 768.7993 483.03551 780.33535 483.64276 791.90625 483.84375 C 797.96042 483.94886 804.04045 483.82181 810.09375 483.96875 C 810.8447 483.98698 811.5929 484.01007 812.34375 484.03125 C 826.48945 487.80379 840.62303 491.7169 854.78125 495.40625 C 867.43074 498.68019 880.05832 502.0261 892.65625 505.53125 C 889.00588 505.01807 883.85808 504.28577 874.8125 502.9375 C 861.86011 501.00691 849.0331 498.21039 836.0625 496.40625 C 829.70872 495.52247 823.31812 495.00651 816.9375 494.34375 C 810.51678 493.67683 804.07877 493.05575 797.65625 492.40625 C 796.38784 492.08351 795.75298 491.90663 794.28125 491.53125 C 787.33982 489.76078 780.46894 487.78388 773.5 486.125 C 768.1021 484.84009 762.67778 483.63299 757.25 482.46875 z M 740.625 505.3125 C 751.72753 506.53876 762.85618 507.72552 773.96875 508.875 C 774.40252 508.9217 778.03973 509.3088 779.53125 509.46875 C 790.64347 512.23074 801.73565 515.01942 812.875 517.65625 C 823.34939 520.25425 833.99651 522.01402 844.59375 524 C 828.37022 523.47713 812.16612 522.56253 795.9375 522.15625 C 792.48128 520.8919 788.54028 519.46381 783.34375 517.75 C 770.33015 513.45813 753.96554 509.04382 740.625 505.3125 z M 475.625 527.65625 C 475.8719 527.63827 476.34991 527.64708 476.875 527.6875 C 475.4948 527.73736 475.25446 527.68323 475.625 527.65625 z M 452.59375 544.5625 C 452.07487 544.84625 451.54906 545.12087 451.03125 545.40625 C 450.80194 545.37521 450.57304 545.34365 450.34375 545.3125 C 450.71812 545.02846 451.13075 544.78067 451.40625 544.71875 C 451.80398 544.62935 452.18803 544.57856 452.59375 544.5625 z M 476.0625 545.90625 C 477.12905 545.90111 478.18349 545.91071 479.25 545.9375 C 484.62316 546.07245 499.79125 547.45458 504.75 547.71875 C 509.77679 547.98655 514.81281 548.04555 519.84375 548.21875 C 545.47428 547.99096 530.77743 547.85308 557 548.71875 C 563.95441 548.94834 570.92525 549.03247 577.875 549.375 C 599.97693 550.46431 598.39084 551.0336 621.03125 552.75 C 624.59435 553.02013 628.15182 553.25378 631.71875 553.46875 L 638.15625 555.78125 C 638.28321 555.82942 638.40432 555.88925 638.53125 555.9375 C 633.07027 555.51777 627.62218 555.0049 622.15625 554.65625 C 604.08551 553.50356 599.26918 553.29479 598.875 553.34375 C 599.1336 553.4017 600.38386 553.54597 601.28125 553.625 C 599.35385 553.47261 594.01042 553.03909 581.71875 552.09375 C 569.78492 551.50062 566.08811 551.32957 563.375 551.1875 C 568.39046 551.48828 573.01505 551.86416 546.5 550.9375 C 536.26293 550.57973 526.04882 549.69125 515.8125 549.3125 C 503.67051 548.86322 498.84626 548.93585 486.9375 548.84375 C 483.39016 548.70821 479.79902 548.70207 476.21875 548.75 C 470.86886 548.04739 465.5063 547.32461 460.15625 546.625 C 465.45355 546.32129 470.76085 545.93178 476.0625 545.90625 z M 827.5 571.1875 C 831.29442 571.6862 835.08093 572.18777 838.875 572.6875 C 841.3594 573.34567 843.97107 574.035 849.65625 575.5625 C 847.69692 575.39438 845.73928 575.2433 843.78125 575.0625 C 842.68724 574.92548 841.59412 574.79243 840.5 574.65625 C 836.16641 573.50748 831.83284 572.33942 827.5 571.1875 z M 658.90625 574.75 C 659.84619 574.80789 660.77919 574.87309 661.71875 574.9375 C 668.93984 575.43249 676.13503 576.22413 683.34375 576.875 C 689.27031 577.35757 695.19836 577.85739 701.125 578.34375 C 707.44765 580.50126 713.80742 582.54522 720.15625 584.625 C 699.75696 581.22483 679.3176 578.05866 658.90625 574.75 z M 511.46875 594.59375 C 513.39614 595.05535 515.32238 595.51196 517.25 595.96875 C 522.73709 597.34848 528.24864 598.67688 533.75 600 C 539.4047 601.60703 545.06427 603.19779 550.75 604.6875 C 558.71189 606.77359 566.72036 608.74469 574.71875 610.6875 C 577.40614 611.47391 580.11581 612.24704 582.8125 613 C 605.96236 619.46383 629.24816 625.32569 652.5 631.40625 C 658.50953 633.05997 664.51339 634.74141 670.5 636.46875 C 668.66925 636.25622 666.89661 636.06296 664.8125 635.8125 C 654.56306 634.58075 648.29977 633.81883 642.625 633.125 C 641.97369 632.95726 641.43228 632.7981 640.75 632.625 C 640.7467 632.62463 640.72206 632.62537 640.71875 632.625 C 637.23017 631.7401 633.29451 630.75188 628.4375 629.59375 C 621.48316 627.93552 614.45428 626.56477 607.5 624.90625 C 573.5321 616.80526 599.37973 622.44758 565.1875 613.96875 C 564.47401 613.79182 563.74584 613.6411 563.03125 613.46875 C 545.79693 607.29957 528.62835 600.96179 511.46875 594.59375 z M 358.90625 647.8125 C 378.77307 649.78673 398.66778 651.45975 418.5 653.71875 C 417.70952 654.43994 417.04055 655.30748 416.3125 656.09375 C 416.16711 656.73009 415.97599 657.36574 415.8125 658 C 411.84673 657.36462 407.89534 656.71439 403.9375 656.03125 C 388.90513 653.43661 373.93462 650.45813 358.90625 647.8125 z M 453.125 658.46875 C 454.44588 658.68543 455.77407 658.89827 457.09375 659.125 C 485.15043 662.90418 513.03852 667.74743 540.8125 673.25 C 542.50934 673.83222 546.27919 675.03983 556.90625 678.25 C 563.23608 680.16209 569.64012 681.83391 575.96875 683.75 C 595.27344 689.59477 614.34576 696.21773 633.5625 702.34375 C 633.70859 702.39511 633.85391 702.44865 634 702.5 C 620.80392 699.53153 607.5563 696.70963 594.28125 694.09375 C 585.29641 692.30811 576.29797 690.6521 567.34375 688.71875 C 550.44369 685.06977 533.62991 681.00442 516.78125 677.125 C 508.74504 675.27465 500.78406 673.15655 492.71875 671.4375 C 484.855 669.76142 476.90514 668.43734 469 666.96875 C 466.89608 666.57789 464.79272 666.19632 462.6875 665.8125 C 460.08705 663.85208 457.49583 661.87785 454.90625 659.90625 C 454.33432 659.40822 453.71574 658.94743 453.125 658.46875 z M 340.5 695.34375 C 346.22186 696.32606 351.93692 697.31466 357.65625 698.3125 C 355.02846 698.19629 352.41139 698.09146 349.78125 698.03125 C 346.69172 697.13618 343.59034 696.23602 340.5 695.34375 z M 453.25 697.625 C 454.62301 697.74327 456.00234 697.84677 457.375 697.96875 C 458.32189 698.06909 459.27163 698.15176 460.21875 698.25 C 461.43179 698.94863 462.61519 699.62952 463.46875 700.125 C 460.0621 699.3035 456.65142 698.46873 453.25 697.625 z M 512 720 C 538.50967 720 560 741.49033 560 768 C 560 794.50967 538.50967 816 512 816 C 485.49033 816 464 794.50967 464 768 C 464 741.49033 485.49033 720 512 720 z M 653.34375 787.03125 C 661.75808 787.91286 670.17067 788.76448 678.59375 789.5625 C 688.98048 791.67302 699.387 793.73644 709.78125 795.8125 C 711.34896 796.35041 711.05342 796.24013 712.90625 796.875 L 717.5 798.625 C 704.30549 796.03752 691.10416 793.51128 677.875 791.09375 C 669.72198 789.62353 661.52957 788.30679 653.34375 787.03125 z M 281.65625 804.1875 C 296.72732 804.734 311.8048 804.9054 326.875 805.28125 C 342.25412 807.92251 357.63384 810.59457 373 813.3125 C 389.05618 816.36513 405.19353 818.93935 421.34375 821.46875 C 420.57285 821.90194 419.79749 822.34003 419.03125 822.78125 C 409.47024 821.57342 400.85249 820.3062 389.875 818.75 C 377.90162 817.37143 365.84298 816.95709 353.84375 815.90625 C 343.54638 815.00445 336.32187 813.82969 326.15625 813.21875 C 325.60201 813.18544 325.12689 813.1838 324.59375 813.15625 C 310.32225 809.99664 295.81082 807.82339 281.65625 804.1875 z M 347.46875 852.96875 C 349.40723 853.35333 351.34389 853.73478 353.28125 854.125 C 352.73857 854.17256 352.19883 854.23179 351.65625 854.28125 C 350.26116 853.84468 348.86112 853.4224 347.46875 852.96875 z M 635.25 861.78125 C 641.27291 862.67325 647.29647 863.62119 653.3125 864.5625 C 659.11358 865.97979 664.90505 867.42853 670.65625 868.84375 C 684.16087 871.53148 697.38107 875.27378 710.5625 879.1875 C 698.0244 876.43658 685.47908 873.67727 672.96875 870.8125 C 660.39958 867.78673 647.83165 864.75752 635.25 861.78125 z M 407.75 868.6875 C 410.57441 868.67149 413.42711 868.66684 416.25 868.75 C 419.45327 868.84436 421.96527 868.95075 424.25 869.0625 C 430.83653 872.71204 437.44053 876.30361 444 880 C 431.79598 876.6148 419.57126 873.29253 407.34375 870 C 405.66979 869.54925 403.99172 869.15005 402.3125 868.71875 C 404.12599 868.70786 405.93652 868.69778 407.75 868.6875 z M 695.5 955.53125 C 695.45392 955.52368 695.52587 955.57578 695.625 955.625 C 695.64644 955.61611 695.66606 955.60264 695.6875 955.59375 C 695.59365 955.5634 695.52841 955.53592 695.5 955.53125 z M 474.15625 977.21875 C 476.00016 977.49713 477.84498 977.80918 479.6875 978.09375 C 478.71971 977.96083 477.74891 977.82143 476.78125 977.6875 C 475.9036 977.53829 475.03351 977.3704 474.15625 977.21875 z "
       transform="translate(0,28.362183)"
       id="path3794" />
    <path
       style="fill:#f2f2f2;fill-opacity:1;stroke:none;stroke-width:4;stroke-linejoin:round;stroke-miterlimit:4;stroke-opacity:0.40000000000000002;stroke-dasharray:none"
       d="M 512 32 C 461.48543 31.999999 412.79243 39.814637 367.0625 54.28125 C 374.8747 55.442 383.61542 56.996273 390.8125 58.21875 C 388.38705 58.091414 385.95876 58.045814 383.53125 58.28125 L 377.65625 59 C 376.01048 59.322828 374.38298 59.761161 372.71875 59.96875 C 356.74713 61.960984 388.34561 40.451053 348.03125 72.6875 C 346.56061 72.664723 345.09592 72.643757 343.625 72.625 C 335.23467 72.589841 326.82775 72.597647 318.4375 72.625 C 307.01276 77.665144 295.84291 83.146801 284.90625 89.03125 C 297.05885 88.863942 309.22073 88.736028 321.375 88.75 C 345.70155 88.972814 369.96321 89.923426 394.28125 90.40625 C 402.50403 90.569509 410.74746 90.399086 418.96875 90.625 C 437.66028 91.138628 448.35134 92.095253 466.875 93.4375 C 482.158 94.211376 497.45628 94.580249 512.71875 95.6875 C 520.31025 96.238243 527.89241 97.207228 535.46875 97.9375 C 556.00467 99.916928 576.55762 101.71049 597.09375 103.6875 C 614.06204 105.6453 618.17377 105.86939 634.84375 108.78125 C 646.43039 110.80518 657.85433 113.73587 669.46875 115.59375 C 674.81751 116.44935 680.2116 116.91994 685.59375 117.53125 C 689.28686 117.95072 692.99144 118.32595 696.6875 118.71875 C 680.57144 99.321939 661.43187 82.526876 640.03125 69 C 628.78312 67.397901 618.68883 65.899814 609.1875 64.40625 C 617.49527 65.375453 626.35513 66.463049 635.78125 67.6875 C 637.02783 67.977576 638.04015 68.213414 639.25 68.5 C 602.3575 45.380045 558.74967 31.999999 512 32 z M 510.9375 55.0625 C 512.50085 55.195421 514.7955 55.370812 516.3125 55.5 C 519.45588 56.226306 522.59876 56.99092 525.71875 57.75 C 520.79277 56.842219 515.87071 55.941525 510.9375 55.0625 z M 281.1875 91.0625 C 253.16213 106.46323 226.82457 124.58201 202.5625 145.0625 C 217.41552 145.6934 232.27242 146.54564 247.125 147.1875 C 296.95928 149.64578 346.55369 155.2467 396.25 159.5 C 411.14044 160.52846 426.03004 161.67115 440.90625 162.875 C 440.45643 162.8559 437.96537 162.75652 437.8125 162.75 C 429.20523 162.55543 420.60444 162.48144 412 162.1875 C 378.44742 161.04132 396.58789 160.95974 363 160.25 C 354.64256 160.07344 346.29487 160.18046 337.9375 160 C 333.58989 159.90612 292.43483 158.44905 287.65625 158.28125 C 254.29725 157.94044 220.92354 158.14445 187.5625 158.25 C 169.04141 175.24566 151.85504 193.68454 136.1875 213.375 C 137.29099 213.19761 138.39928 213.01303 139.5 212.8125 C 161.8326 210.86482 184.2746 209.31353 206.6875 208.625 C 231.89392 207.85065 257.13314 208.37472 282.34375 207.75 C 309.61276 208.02245 337.19611 208.37849 364.40625 210.28125 C 393.72929 212.33177 422.91778 216.60012 452.3125 217.8125 C 461.93422 218.88624 471.55876 219.75899 481.15625 221.03125 C 490.1268 222.2204 499.05592 223.81332 508 225.1875 C 543.28015 230.60801 578.6248 235.69074 613.5625 243.09375 L 639 248.4375 C 646.90616 249.95381 654.83462 251.37301 662.71875 253 C 681.16279 256.80616 688.68403 258.91835 707 263.25 C 736.68394 270.27013 719.18123 265.51276 747.34375 273.8125 C 747.81089 273.97268 748.28274 274.12145 748.75 274.28125 C 737.30822 271.92805 725.86246 269.60816 714.375 267.5 C 688.67228 262.78308 682.495 262.23196 656.3125 258.59375 C 643.63915 256.86801 630.95954 255.15602 618.28125 253.46875 C 612.74664 252.38709 607.21759 251.33987 601.65625 250.40625 C 584.76122 247.56996 566.33204 245.62232 549.34375 243.625 C 544.00425 243.1199 538.68366 242.62595 533.34375 242.125 C 523.48377 240.7593 513.63426 239.26927 503.75 238.09375 C 493.05196 236.82146 482.31141 235.90719 471.59375 234.8125 C 439.30115 233.33751 407.18143 229.42222 374.9375 227.3125 C 345.0928 225.35976 315.1522 224.71421 285.28125 223.1875 C 275.11154 222.89683 264.91784 222.66261 254.75 222.3125 C 220.63129 221.13767 227.65256 220.90861 193.65625 220.25 C 186.41484 220.10972 179.17862 220.03204 171.9375 220 C 161.70811 218.65901 151.49372 217.28764 141.25 216.0625 C 139.05744 215.80027 136.85007 215.56537 134.65625 215.3125 C 123.65303 229.28746 113.42167 243.89749 104 259.0625 C 111.76604 259.06047 119.40429 259.12359 132.59375 259.40625 C 141.22256 259.59118 180.287 260.91676 188.96875 261.03125 C 198.53472 261.1574 208.08982 260.92332 217.65625 261 C 217.85401 261.01112 218.05224 261.02007 218.25 261.03125 C 261.23541 263.45999 304.09959 267.29868 346.875 272.09375 C 344.77042 271.93359 342.66896 271.79031 340.5625 271.65625 C 311.86306 269.82975 283.10616 269.79832 254.375 269.125 C 244.81727 268.90101 235.27331 268.458 225.71875 268.125 C 183.51572 266.95247 141.22487 266.20345 99 267.25 C 94.965269 274.04374 91.078623 280.93301 87.375 287.9375 C 93.330648 288.20424 99.177306 288.52885 104.65625 288.96875 C 119.00822 290.12106 147.02568 293.71892 161.1875 295.28125 C 164.9657 295.69806 168.74995 296.08101 172.53125 296.46875 C 168.77683 296.49143 165.03542 296.47759 161.28125 296.4375 C 148.85331 296.30484 122.5601 295.42845 110.375 295.125 C 101.54696 294.90515 92.731006 294.79381 83.90625 294.6875 C 79.268234 303.80635 74.904646 313.08798 70.84375 322.53125 C 83.788554 323.03961 99.86107 323.57155 104.96875 323.75 C 106.9103 323.91832 108.83935 324.0855 110.78125 324.25 C 104.95953 324.27986 99.133999 324.30732 93.3125 324.34375 C 85.581158 324.27235 77.858412 324.22976 70.125 324.21875 C 65.724315 334.56141 61.680587 345.11273 58 355.8125 C 85.479298 356.97639 55.418043 355.05199 99.5625 357.3125 C 133.95751 359.07376 130.9323 359.11369 128.21875 359.0625 C 130.42074 359.14192 137.48848 359.40338 158.71875 360.21875 C 169.37943 360.6264 180.03891 360.78663 190.6875 361.4375 C 205.93601 362.36953 242.58488 366.03948 257.53125 367.34375 C 291.85915 370.33933 293.44408 369.99169 328.125 373.46875 C 340.37141 374.69656 352.60822 376.13683 364.84375 377.46875 C 434.61919 386.20548 504.44557 394.45058 574.09375 404.15625 C 602.44744 408.68641 630.47602 415.266 658.8125 419.875 C 667.13369 421.22846 675.52523 422.1482 683.875 423.3125 C 692.49036 424.54188 693.60496 424.70218 696.78125 425.15625 C 703.32556 417.26934 709.36901 408.94074 714.875 400.25 C 711.15963 399.53883 707.45484 398.79576 703.75 398.03125 C 704.64037 398.11597 705.55285 398.11491 706.4375 398.25 C 707.21408 398.36859 708.03127 399.19264 708.71875 398.8125 C 712.48629 396.72926 715.87029 395.0515 718.90625 393.65625 C 734.76344 366.7444 745.51633 336.46816 749.84375 304.15625 C 746.43481 303.66456 743.03681 303.1624 739.625 302.6875 C 737.51245 302.23916 735.39745 301.80556 733.28125 301.375 C 738.81523 302.21159 744.34985 303.10331 749.875 304 C 751.27011 293.53038 752 282.8512 752 272 C 752 260.7497 751.21658 249.6821 749.71875 238.84375 C 748.46409 238.60712 747.21852 238.38461 745.96875 238.125 C 725.36091 233.84423 704.90406 228.8768 684.34375 224.375 C 638.30629 215.23498 592.09746 206.95526 545.8125 199.15625 C 498.12883 192.87158 450.60248 185.43175 402.90625 179.21875 C 399.02642 178.82268 395.16263 178.4387 391.28125 178.0625 C 399.47753 178.33565 407.67076 178.53558 415.875 178.5625 C 433.01272 179.31279 450.16299 179.6724 467.28125 180.78125 C 475.69191 181.32605 484.07072 182.25521 492.46875 182.96875 C 516.58959 185.01816 540.72357 186.9424 564.84375 189 C 582.57307 190.62744 592.51426 191.43299 610.1875 193.53125 C 671.19053 200.77386 595.82336 192.25599 655.53125 199.59375 C 705.4405 205.72731 650.21675 198.04099 697.8125 204.875 C 709.63222 206.9936 721.36116 209.51104 733.21875 211.40625 C 736.02402 211.85462 740.27539 212.30518 744.625 212.8125 C 740.14929 195.1709 733.73343 178.30799 725.59375 162.46875 C 711.45582 159.38776 703.90619 157.74332 688.5625 154.1875 C 685.67811 153.51905 664.65025 148.53319 652.125 145.59375 C 668.44448 147.87928 684.59305 151.16171 700.84375 153.875 C 706.20024 154.76934 711.61555 155.42998 716.96875 156.34375 C 719.28952 156.7399 721.07926 157.06876 722.9375 157.40625 C 716.6523 145.86032 709.43364 134.89442 701.40625 124.59375 C 692.94925 122.89614 684.4859 121.26252 675.96875 119.84375 C 663.05014 117.6918 650.07858 115.87957 637.15625 113.75 C 595.59475 107.17626 553.55133 103.65851 511.53125 101.90625 C 493.22173 100.72585 474.89644 100.30754 456.5625 100.1875 C 455.02464 100.08013 453.47138 99.965903 451.9375 99.8125 C 440.88861 98.707501 429.96597 96.540011 418.875 95.78125 C 414.28904 95.404021 409.70562 95.093525 405.125 94.65625 C 400.85477 94.248604 396.62199 93.562642 392.34375 93.25 C 388.77638 92.989306 385.16847 93.061691 381.59375 92.9375 C 378.73498 92.838182 375.88888 92.721553 373.03125 92.59375 C 370.97443 92.501762 368.77962 91.499345 366.875 92.28125 C 365.9038 92.679958 364.92992 93.110411 363.96875 93.53125 C 363.2589 93.353851 362.73698 93.292119 363.03125 93.6875 C 363.07983 93.752778 363.1367 93.811638 363.1875 93.875 C 360.27299 95.170937 357.38239 96.532959 354.53125 97.96875 C 332.88678 95.926055 311.18041 94.531579 289.59375 91.90625 C 286.97778 91.641698 283.96776 91.346093 281.1875 91.0625 z M 306.59375 131.4375 C 321.49656 131.37746 336.38392 131.45626 351.28125 131.8125 C 358.42299 133.30043 365.54782 134.90752 372.6875 136.40625 C 382.28796 138.12495 391.91828 139.62194 401.5625 141.0625 C 397.44907 140.60725 393.33958 140.1628 389.21875 139.78125 C 360.80035 137.14995 332.25281 135.75097 303.875 132.625 C 300.61488 132.32219 296.16395 131.89689 292.25 131.53125 C 297.02611 131.48688 301.81776 131.45674 306.59375 131.4375 z M 512 240 C 538.50967 240 560 261.49033 560 288 C 560 296.3343 557.89261 304.16973 554.15625 311 C 556.74063 311.36769 559.32127 311.73297 561.90625 312.09375 C 571.38343 313.69467 580.8883 315.15041 590.34375 316.875 C 626.93586 323.54905 608.17179 320.72456 643.5625 327.71875 C 662.24237 331.41041 681.03837 334.51451 699.65625 338.53125 C 698.8975 338.46996 698.13326 338.41053 697.375 338.34375 C 672.40242 336.14458 647.54004 333.03226 622.71875 329.53125 C 603.06359 327.48472 583.37362 325.82955 563.75 323.5 C 558.01102 322.81871 552.26006 322.10387 546.53125 321.34375 C 537.80251 330.38198 525.55742 336 512 336 C 493.41029 336 477.28609 325.42443 469.3125 309.96875 C 458.94059 308.41889 448.57812 306.89964 438.1875 305.5 C 408.87296 301.83064 406.80975 301.26006 377.03125 298.8125 C 323.48166 294.41115 269.68946 291.79399 216.5 283.84375 C 241.25099 284.57138 265.99598 285.00765 290.75 285.78125 C 300.34982 286.08126 309.97263 286.12613 319.5625 286.65625 C 329.66086 287.21448 339.73351 288.19307 349.8125 289.03125 C 360.09252 289.88615 370.34903 290.84766 380.625 291.75 L 411.65625 294.5625 C 421.81369 295.25409 431.97972 295.77351 442.125 296.625 C 449.84852 297.27323 457.54958 298.02265 465.25 298.875 C 464.44087 295.38125 464 291.73978 464 288 C 464 261.49033 485.49033 240 512 240 z M 108.09375 340.84375 C 119.99641 341.22245 116.62987 341.13964 144.9375 342.5 C 164.97517 343.23323 185.06495 343.05484 205.09375 344 C 224.03206 344.8937 246.90374 347.16984 265.78125 348.875 C 285.98391 351.02595 306.22427 352.78796 326.40625 355.125 C 337.05272 356.35784 347.65111 357.94593 358.28125 359.3125 C 390.88623 363.50406 423.53533 367.34451 456.125 371.65625 C 466.95106 373.19947 477.78323 374.63272 488.59375 376.28125 C 490.34386 376.54813 491.55171 376.73127 493.09375 376.96875 C 456.86169 372.59565 420.63346 368.2257 384.4375 363.5625 C 350.41014 359.67666 346.10249 358.97723 312.25 355.875 C 300.75135 354.82127 289.21698 354.02704 277.71875 352.96875 C 263.00898 351.61486 226.3062 347.64062 211.3125 346.59375 C 200.78894 345.85899 190.22493 345.62265 179.6875 345.125 C 127.13227 342.77679 172.17611 345.05161 121.25 341.6875 C 114.25674 341.22554 111.73207 341.07178 108.09375 340.84375 z M 56.6875 359.71875 C 54.686055 365.70508 52.800585 371.72368 51.03125 377.8125 C 57.431741 378.48202 63.846777 379.04301 70.25 379.6875 C 94.512654 382.06189 118.79216 384.34088 143.0625 386.625 C 125.41279 386.69264 107.76089 386.94049 90.125 387.5625 C 83.217446 387.84996 76.3161 388.18066 69.40625 388.40625 C 58.62917 388.75809 53.49627 388.75751 47.9375 388.90625 C 45.038128 399.86562 42.503752 410.96684 40.375 422.21875 C 40.530184 422.22341 40.821841 422.24586 40.96875 422.25 C 48.049685 422.44967 55.13605 422.50301 62.21875 422.625 C 87.153484 423.74767 112.1085 423.99944 137.03125 425.4375 C 137.76195 425.47966 138.48827 425.51678 139.21875 425.5625 C 134.61657 425.78123 130.04027 426.01729 125.4375 426.21875 C 70.428847 428.44073 131.66909 425.79177 78.34375 428.625 C 59.751893 429.61281 57.531586 429.50562 48.125 430 C 45.101409 429.85348 42.087046 429.69289 39.0625 429.5625 C 34.425523 456.34932 32 483.88785 32 512 C 32 518.28701 32.104204 524.55289 32.34375 530.78125 C 34.943328 530.82306 37.557061 530.85356 40.15625 530.90625 C 58.118587 531.27039 76.073389 532.08336 94.03125 532.625 C 116.9215 533.04088 139.79913 533.59416 162.6875 534.3125 C 147.47257 534.88237 126.22965 535.83932 118.25 536.09375 C 89.164596 537.02115 92.599137 536.27826 63.65625 537.8125 C 54.952542 538.27387 46.25905 538.98162 37.5625 539.5625 C 35.979169 539.64028 34.395877 539.70438 32.8125 539.78125 C 33.08656 544.58081 33.429676 549.36422 33.84375 554.125 C 36.614866 553.91964 39.382305 553.72545 42.15625 553.5625 C 69.641969 551.94789 69.387155 552.6879 97.0625 551.65625 C 110.44456 551.1574 142.28831 549.314 155.46875 549.09375 C 165.48577 548.92636 175.51306 549.21435 185.53125 549.28125 C 205.94882 549.67949 226.36309 550.3208 246.78125 550.6875 C 256.88884 550.86903 266.988 550.73521 277.09375 551 C 306.2929 551.76508 304.95573 552.39046 333.5 554.125 C 342.20823 554.65417 350.94375 555.01525 359.65625 555.46875 C 366.50518 555.80614 369.84818 555.96543 373.28125 556.125 C 386.72312 546.58861 401.20698 538.42254 416.5 531.78125 C 405.22913 530.68332 393.94598 529.66007 382.65625 528.78125 C 386.10987 528.93599 389.57666 529.11406 393.03125 529.25 L 414.71875 530.5 C 416.1781 530.56126 417.63414 530.60035 419.09375 530.65625 C 447.67249 518.64549 479.05628 512 512 512 C 548.01767 512 582.18468 504.05948 612.84375 489.84375 C 598.68647 488.74783 584.53576 487.68416 570.375 486.625 C 574.46412 484.02284 573.04211 484.26762 566.3125 485.0625 C 566.23948 485.06581 566.16676 485.09029 566.09375 485.09375 L 561.5 484.53125 C 559.67236 484.18412 557.87794 483.72468 556.03125 483.5 C 550.47865 482.82443 544.86704 482.72194 539.3125 482.0625 C 529.62961 480.91295 527.60127 480.56157 527.34375 480.46875 C 527.66651 480.43503 529.19342 480.61602 513.53125 479.1875 C 497.02201 477.71433 480.46726 476.20478 464.03125 474.03125 C 425.45769 468.93021 461.2001 472.75883 419.40625 467.75 C 411.085 466.75273 402.73983 465.95086 394.40625 465.0625 C 370.43982 461.87906 346.38351 459.70165 322.34375 457.1875 C 328.39892 457.35621 334.44485 457.54912 340.5 457.71875 C 369.36798 459.4016 398.28847 460.74552 427.09375 463.34375 C 456.74979 466.01873 458.43559 466.79776 487.90625 470.46875 C 497.64046 471.68129 507.38483 472.7738 517.125 473.9375 C 526.39567 475.07412 535.69065 476.02722 544.9375 477.34375 C 562.5044 479.84487 579.97688 483.09993 597.53125 485.6875 C 601.37037 486.2534 608.96896 487.30837 616.125 488.3125 C 630.43568 481.41173 643.94071 473.11022 656.5 463.625 C 654.66717 463.35466 652.82896 463.10622 651 462.8125 C 630.19791 459.47177 609.343 456.61521 588.5 453.53125 C 514.3837 443.78014 616.57935 457.40382 539.375 446.46875 C 511.62511 442.53831 513.97183 443.47228 485.65625 439.90625 C 452.20065 435.6929 454.78828 435.81871 457.125 436.03125 C 455.35005 435.83361 448.78274 435.0827 427.0625 432.625 C 396.23259 429.46429 365.51126 425.72223 334.71875 422.21875 C 324.72901 421.08215 314.75963 419.69554 304.75 418.75 C 290.28039 417.38315 259.79038 415.64127 245.25 414.75 C 240.28411 414.51605 191.5213 412.22605 186.46875 411.90625 C 177.24346 411.32232 168.06602 410.37972 158.84375 409.75 C 134.30422 408.07436 109.70348 407.51641 85.15625 406 C 65.740277 405.56731 64.948316 405.66458 51.4375 405 C 56.840175 404.7218 62.22317 404.3584 67.625 404.0625 C 75.251799 403.64894 82.896144 403.02291 90.53125 402.8125 C 107.46762 402.34578 124.40203 402.66091 141.34375 402.46875 C 143.81618 402.4407 196.18795 401.7604 197.75 401.75 C 208.01444 401.6819 218.26659 401.72885 228.53125 401.71875 C 285.01984 402.60843 235.29875 401.71949 291.9375 403.125 C 293.97534 403.17557 295.99303 403.21295 298.03125 403.25 C 355.63239 410.50808 413.21595 417.8722 470.78125 425.40625 C 524.78862 432.61914 578.53166 441.67459 632.09375 451.625 C 642.7948 453.66384 653.49575 455.65412 664.21875 457.5625 C 674.25176 449.32278 683.58042 440.26954 692.15625 430.53125 C 689.75017 430.0894 687.34197 429.66718 684.9375 429.21875 C 667.52808 425.97194 650.16592 422.40809 632.78125 419.03125 C 602.97104 413.38876 572.80964 410.00096 542.71875 406.28125 C 531.91338 404.94554 521.10514 403.48863 510.28125 402.3125 C 504.81644 401.7187 449.1091 396.55785 444.125 396.09375 C 410.9775 393.33596 377.76845 390.64643 344.53125 389.1875 C 333.83745 388.7181 323.1371 388.59159 312.4375 388.28125 C 311.62245 388.25761 312.08146 388.27243 311.3125 388.25 C 302.47865 387.10887 293.64421 385.97052 284.8125 384.8125 C 220.78078 377.12477 156.50653 371.80379 92.5 363.90625 C 84.305824 362.99956 76.085297 362.19055 67.90625 361.15625 C 63.101819 360.54869 59.653325 360.10865 56.6875 359.71875 z M 682.4375 363.03125 C 695.20623 365.56697 707.92205 368.30325 720.59375 371.3125 C 721.22806 371.47764 721.86604 371.64591 722.5 371.8125 C 720.98995 371.68472 719.47849 371.56843 717.96875 371.4375 C 711.41062 369.8555 704.71552 368.72596 698.1875 367.09375 C 692.92113 365.80806 687.68852 364.37926 682.4375 363.03125 z M 684.5625 393.90625 C 689.01009 394.70674 693.39534 395.9389 697.90625 396.375 C 699.24309 396.79429 700.55755 397.28148 701.90625 397.65625 C 696.11364 396.44435 690.34013 395.18807 684.5625 393.90625 z M 187.03125 440.15625 C 189.1766 440.15508 191.32339 440.18103 193.46875 440.1875 C 186.22266 440.45039 178.99066 440.78645 171.75 441.15625 C 168.99908 440.88452 166.25133 440.61137 163.5 440.34375 C 171.34072 440.23438 179.18923 440.16052 187.03125 440.15625 z M 53.875 463.3125 C 55.623155 463.41136 57.292407 463.52757 59.09375 463.625 C 57.885858 463.62261 56.676665 463.62936 55.46875 463.625 C 54.155253 463.62025 52.844769 463.60808 51.53125 463.59375 C 52.26083 463.51202 53.203615 463.38717 53.875 463.3125 z M 85.75 490 C 93.569302 489.95729 101.40198 489.96589 109.21875 490.09375 C 111.71952 490.13466 121.50291 490.53109 131.84375 490.9375 C 134.34026 491.10624 136.84525 491.23987 139.34375 491.375 C 158.24026 492.39703 177.16008 493.0625 196.0625 493.96875 C 237.63096 496.76882 279.15022 500.06758 320.6875 503.3125 C 312.15715 503.32286 303.62027 503.45206 295.09375 503.21875 C 274.47164 502.65447 253.89788 500.95684 233.28125 500.21875 C 222.90344 499.84722 212.53597 499.75157 202.15625 499.4375 C 126.94317 497.16176 208.89172 499.24457 143.8125 497.65625 C 134.4272 496.55344 125.04479 495.36096 115.625 494.625 C 86.2237 492.21032 104.52085 493.58322 75.625 491.78125 C 69.668418 491.4098 63.688217 491.22202 57.75 490.625 C 56.916879 490.54124 56.082164 490.43749 55.25 490.34375 C 65.416272 490.20256 75.584907 490.05552 85.75 490 z M 114.0625 513.125 C 126.43562 514.21186 139.34178 515.33784 139.875 515.375 C 148.37646 515.96784 156.90417 516.13495 165.40625 516.71875 C 174.03823 517.31148 182.65232 518.27059 191.28125 518.90625 C 192.34419 518.98455 195.14931 519.16403 197.46875 519.3125 C 170.17234 518.30137 142.8389 517.63527 115.53125 517.09375 C 100.60929 516.47818 85.704602 515.56479 70.78125 515 C 78.045653 514.66551 85.29901 514.29269 92.5625 513.9375 L 114.0625 513.125 z M 80.125 556.65625 C 70.897939 556.67443 61.668789 556.81477 52.4375 557.09375 C 46.349523 557.27773 40.269398 557.62456 34.1875 557.96875 C 34.785737 564.26262 35.504817 570.52935 36.34375 576.75 C 55.122713 575.42733 73.898731 574.08585 92.71875 573.34375 C 119.64843 573.36382 146.57096 573.31009 173.5 573.1875 C 177.70268 573.21334 181.89201 573.23367 186.09375 573.3125 C 213.1316 573.81978 240.17797 575.22556 267.21875 575.8125 C 293.26894 577.59007 319.38829 577.34444 345.46875 578.03125 C 345.85512 578.04142 346.23864 578.05195 346.625 578.0625 C 353.55357 571.47358 360.88628 565.29327 368.5625 559.5625 C 346.40109 558.30277 324.22208 557.18263 302.03125 556.78125 C 293.41998 556.62545 284.80016 556.73765 276.1875 556.71875 C 252.54147 557.27281 228.89767 557.522 205.25 557.59375 C 178.93399 557.19591 152.59494 558.05676 126.28125 557.15625 C 110.89565 556.89527 95.503436 556.62595 80.125 556.65625 z M 38.15625 589.125 C 39.772957 599.1329 41.712072 609.05324 43.9375 618.84375 C 61.86848 618.69194 79.797291 618.25966 97.71875 618.53125 C 99.600216 618.55976 107.66978 618.85937 116.40625 619.1875 C 100.53548 619.78824 98.609625 619.47915 77.90625 620.8125 C 64.400033 621.68234 56.031041 622.49567 45.0625 623.625 C 46.195534 628.38193 47.382782 633.11165 48.65625 637.8125 C 50.8835 637.63586 52.801175 637.47888 55.5 637.28125 C 80.511773 635.44969 77.833378 636.10044 103.5 634.71875 C 128.13504 633.3926 130.58289 633.14675 130.34375 633.09375 C 129.73482 633.08132 130.05283 633.08517 157.625 631.96875 C 166.74406 631.52431 175.84322 630.90696 184.96875 630.625 C 224.65726 629.39872 264.4388 630.06122 304.09375 632.09375 C 311.04592 620.06401 318.98056 608.68777 327.84375 598.09375 C 317.81141 597.87153 307.78157 597.70632 297.75 597.46875 C 269.51162 596.79998 241.27601 595.80257 213.0625 594.46875 C 203.84074 594.14044 194.63125 593.68744 185.40625 593.46875 C 167.30961 593.03974 151.83643 593.13223 134.03125 593.21875 C 131.74106 593.13502 129.44666 593.0448 127.15625 592.96875 C 110.63536 592.26227 106.57662 592.08556 102.53125 591.90625 C 111.79065 592.34591 121.59179 592.8944 81.125 591.53125 C 66.780954 591.04806 52.480432 590.06614 38.15625 589.125 z M 290.625 639.8125 C 287.24597 639.83244 283.05422 639.88245 277.25 639.90625 C 269.35395 640.00546 261.45469 639.9213 253.5625 640.1875 C 252.38695 640.22715 251.2063 640.29263 250.03125 640.34375 C 248.39525 640.3412 246.761 640.34709 245.125 640.34375 C 199.53489 640.56715 153.93251 640.44869 108.34375 640.03125 C 88.636176 639.86328 68.924684 639.83912 49.21875 639.84375 C 52.659992 652.32786 56.597649 664.60196 61 676.65625 C 71.104912 676.95752 77.622442 676.86325 89.90625 676.84375 C 111.79951 676.77153 133.72866 675.40144 155.625 675.75 C 163.34868 675.87295 171.06489 676.42325 178.78125 676.78125 C 186.73138 677.15009 190.98867 677.33642 194.25 677.5 C 169.14305 678.33189 144.02876 679.02317 118.9375 680.3125 C 69.483386 682.17026 123.96034 679.97596 76.34375 682.375 C 71.200896 682.63411 67.15754 682.79881 63.34375 682.9375 C 66.634658 691.5699 70.170942 700.0835 73.9375 708.46875 C 83.990063 708.47236 94.04292 708.50853 104.09375 708.46875 C 124.36152 709.44114 144.63814 710.15007 164.90625 711 C 154.89501 711.62869 144.89109 712.36067 134.875 712.90625 C 92.839077 715.92554 138.32493 712.84164 98.1875 715.09375 C 89.015223 715.60841 83.842786 716.07056 77.59375 716.4375 C 81.447976 724.61327 85.518176 732.64742 89.8125 740.5625 C 93.105552 740.5107 96.394254 740.47428 99.6875 740.4375 C 105.35207 740.37426 111.0242 740.17692 116.6875 740.3125 C 128.96448 740.6064 141.1983 741.81592 153.46875 742.3125 C 157.37179 742.47045 160.44649 742.57347 163.34375 742.65625 C 150.816 742.59781 138.30904 742.52413 125.78125 742.46875 C 114.45791 743.23905 103.11749 743.69633 91.78125 744.125 C 94.647292 749.30208 97.606678 754.4423 100.65625 759.5 C 101.25119 759.46891 101.84242 759.43499 102.4375 759.40625 C 145.15199 759.20396 187.88035 758.87457 230.59375 759.46875 C 244.44946 759.52641 258.29845 759.51346 272.15625 759.5625 C 272.07829 757.04761 272 754.5338 272 752 C 272 744.22771 272.40269 736.55185 273.125 728.96875 C 267.14084 728.56042 261.17554 727.90956 255.1875 727.5625 C 242.21898 726.81085 229.2161 726.81048 216.25 726 C 214.16743 726.00213 212.65478 725.99428 210.875 726 C 216.20775 725.9483 221.54317 725.7432 226.875 725.625 C 231.91709 725.31302 236.962 725.05977 242 724.6875 C 246.37828 724.36398 250.73817 723.7349 255.125 723.5625 C 261.30966 723.31945 267.49144 723.44885 273.6875 723.6875 C 274.70195 715.05913 276.15759 706.57338 278.0625 698.25 C 266.91245 698.04995 255.754 697.94045 244.625 697.1875 C 220.4554 695.48619 196.25754 694.70513 172.0625 693.625 C 195.31001 692.93008 218.54774 692.25667 241.78125 691.03125 C 254.50067 690.908 267.23286 690.57782 279.96875 690.5625 C 282.3558 681.52538 285.24332 672.68011 288.625 664.09375 C 274.73247 663.47853 260.85844 662.88211 246.96875 662.1875 C 239.50093 662.02077 232.02734 661.95626 224.5625 661.6875 C 221.31994 661.57076 181.26672 659.516 178.03125 659.4375 C 169.96948 659.24188 161.90985 659.25948 153.84375 659.34375 C 154.08297 659.33587 154.32327 659.32027 154.5625 659.3125 C 163.05818 659.03647 171.53545 658.9912 180.03125 658.71875 C 194.69287 658.24856 209.34198 657.27421 224 656.71875 C 246.5597 656.67516 269.09694 656.73642 291.65625 656.8125 C 294.15793 651.02957 296.84829 645.34902 299.78125 639.8125 C 297.03394 639.79868 294.26877 639.791 290.625 639.8125 z M 190.78125 725.84375 C 196.66646 725.75501 202.5517 726.02331 208.4375 726.03125 C 201.47182 726.05578 196.02871 726.02313 189.84375 725.875 C 189.89892 725.8732 190.76691 725.84396 190.78125 725.84375 z M 102 761.6875 C 112.4274 778.77392 123.86551 795.15667 136.28125 810.75 C 141.80929 811.2403 160.02855 812.7235 161.5 812.84375 C 166.61701 813.40968 171.74024 813.85431 176.84375 814.53125 C 181.63601 815.16691 186.39223 816.16868 191.1875 816.78125 C 191.39586 816.80787 191.60406 816.8178 191.8125 816.84375 C 182.58624 816.80759 173.35103 816.75315 164.125 816.65625 C 156.70518 815.66955 149.45464 816.7812 142.15625 817.8125 C 142.10453 817.80809 142.05172 817.81692 142 817.8125 C 156.27762 835.06621 171.76062 851.30761 188.28125 866.40625 C 205.09632 866.46367 221.6003 868.04804 238.375 870.3125 C 231.48081 871.13067 224.70799 872.53994 218.09375 874.90625 C 217.09796 875.2625 216.03978 875.46926 215.125 876 C 211.96789 877.8317 208.81755 879.71621 205.6875 881.59375 C 288.80258 950.55859 395.55934 992 512 992 C 438.19036 992 372.18158 958.66759 328.15625 906.25 C 317.77322 904.59602 307.38716 902.85065 297.0625 900.875 C 264.34609 894.61463 271.00299 895.70187 277.75 896.875 C 274.72808 896.33494 271.6192 895.74679 259 893.46875 C 248.09674 891.05291 237.0688 889.39048 226.03125 887.71875 C 226.19725 887.70546 226.36528 887.70085 226.53125 887.6875 C 264.28281 883.6761 213.47854 888.90698 251.65625 885.46875 C 269.69638 883.84408 287.71877 881.75567 305.84375 881.28125 C 307.10551 881.18916 308.36202 881.10467 309.625 881.03125 C 306.33697 875.88545 303.24006 870.62206 300.34375 865.21875 C 299.53118 865.28049 298.71879 865.34411 297.90625 865.40625 C 298.52167 864.97151 299.13725 864.53223 299.75 864.09375 C 290.38945 846.40655 283.19056 827.39895 278.46875 807.4375 C 275.26431 806.9442 272.05157 806.36872 268.875 805.6875 C 257.7978 803.78563 254.86856 803.10687 243.625 801.875 C 234.37947 800.86203 225.04824 800.53619 215.8125 799.4375 C 210.48385 798.8036 205.20762 797.87303 199.90625 797.03125 C 202.65682 797.18467 205.4028 797.32278 208.15625 797.40625 C 223.91883 797.88404 239.77311 797.17863 255.46875 799.21875 C 259.68516 799.63907 263.86393 800.21695 268.09375 800.46875 C 271.03474 800.64382 273.99072 800.68706 276.9375 800.71875 C 275.25041 792.53538 274.01824 784.18336 273.1875 775.71875 C 261.00127 774.38415 259.03628 774.919 245.84375 774.125 C 229.05249 773.11443 212.25016 771.82187 195.53125 769.96875 C 183.69318 769.09309 171.82595 768.55773 160 767.53125 C 154.23429 767.03079 148.50825 766.20506 142.75 765.625 C 129.17138 764.25715 115.49979 763.7365 102 761.6875 z M 216.3125 881.1875 C 216.15038 881.27921 216.06694 881.31537 215.90625 881.40625 C 215.90303 881.38571 215.90922 881.36437 215.90625 881.34375 C 215.88601 881.2031 216.18061 881.2403 216.3125 881.1875 z "
       transform="translate(0,28.362183)"
       id="path3794-4" />
  </g>
  <g
     inkscape:groupmode="layer"
     id="layer2"
     inkscape:label="sketch" />
</svg>
