<?xml version="1.0" encoding="UTF-8" standalone="no"?>
<!-- Created with Inkscape (http://www.inkscape.org/) -->

<svg
   xmlns:dc="http://purl.org/dc/elements/1.1/"
   xmlns:cc="http://creativecommons.org/ns#"
   xmlns:rdf="http://www.w3.org/1999/02/22-rdf-syntax-ns#"
   xmlns:svg="http://www.w3.org/2000/svg"
   xmlns="http://www.w3.org/2000/svg"
   xmlns:sodipodi="http://sodipodi.sourceforge.net/DTD/sodipodi-0.dtd"
   xmlns:inkscape="http://www.inkscape.org/namespaces/inkscape"
   width="1024"
   height="1024"
   id="svg2"
   version="1.1"
   inkscape:version="0.48.4 r9939"
   sodipodi:docname="weibo.svg">
  <defs
     id="defs4" />
  <sodipodi:namedview
     id="base"
     pagecolor="#ffffff"
     bordercolor="#666666"
     borderopacity="1.0"
     inkscape:pageopacity="0.0"
     inkscape:pageshadow="2"
     inkscape:zoom="0.9008434"
     inkscape:cx="388.05799"
     inkscape:cy="595.72224"
     inkscape:document-units="px"
     inkscape:current-layer="layer1"
     showgrid="true"
     showguides="true"
     inkscape:guide-bbox="true"
     inkscape:window-width="1920"
     inkscape:window-height="1125"
     inkscape:window-x="-9"
     inkscape:window-y="-9"
     inkscape:window-maximized="1"
     objecttolerance="10000"
     gridtolerance="1">
    <inkscape:grid
       type="xygrid"
       id="grid2985"
       empspacing="4"
       visible="true"
       enabled="true"
       snapvisiblegridlinesonly="true"
       spacingx="32px"
       spacingy="32px" />
    <sodipodi:guide
       orientation="0,1"
       position="528,512"
       id="guide2987" />
    <sodipodi:guide
       orientation="1,0"
       position="512,448"
       id="guide2989" />
  </sodipodi:namedview>
  <metadata
     id="metadata7">
    <rdf:RDF>
      <cc:Work
         rdf:about="">
        <dc:format>image/svg+xml</dc:format>
        <dc:type
           rdf:resource="http://purl.org/dc/dcmitype/StillImage" />
        <dc:title></dc:title>
      </cc:Work>
    </rdf:RDF>
  </metadata>
  <g
     inkscape:label="Layer 1"
     inkscape:groupmode="layer"
     id="layer1"
     transform="translate(0,-28.3622)">
    <path
       style="fill:#000000;fill-opacity:1;stroke:none"
       d="M 128 32 C 74.816 32 32 74.816 32 128 L 32 896 C 32 949.184 74.816 992 128 992 L 896 992 C 949.184 992 992 949.184 992 896 L 992 128 C 992 74.816 949.184 32 896 32 L 128 32 z M 160 96 L 864 96 C 899.456 96 928 124.544 928 160 L 928 864 C 928 899.456 899.456 928 864 928 L 160 928 C 124.544 928 96 899.456 96 864 L 96 160 C 96 124.544 124.544 96 160 96 z "
       transform="translate(0,28.3622)"
       id="rect3018" />
    <path
       style="fill:#000000;fill-opacity:1;stroke:none"
       d="m 674.78264,255.2372 c -5.69879,-0.0315 -11.29912,0.24337 -16.75,0.8125 -21.65489,2.26102 -43.8462,7.05232 -44.34375,31.78125 -0.44963,22.34778 17.19507,27.18283 29.03125,26.6875 40.05293,-1.67617 75.70066,-10.17401 119.71875,29.84375 26.90461,24.45954 47.81251,68.12694 43.5625,95.34375 -7.87187,50.41107 -15.20345,69.38861 8.25,76.53125 50.6078,15.41236 48.96514,-61.64937 45.90625,-96.9375 -4.07786,-47.0433 -33.56491,-94.67569 -70.25,-124.40625 -30.60092,-24.79979 -75.23347,-39.43544 -115.125,-39.65625 z m -220.75,81.28125 c -129.69968,1.0336 -312.45805,207.42748 -291.8125,318.28125 22.3567,120.61403 169.19983,172.52211 314.53125,168 131.03604,0.77072 313.72228,-99.30158 294.03125,-214.84375 -2.06946,-40.52855 -46.60931,-67.57934 -96.5625,-84.28125 -7.5778,-2.53365 30.49743,-75.23439 -11.25,-95.875 -70.27394,-34.74459 -166.04239,30.69144 -161.84375,13.21875 7.91793,-32.95063 24.54696,-100.80001 -34.71875,-103.96875 -4.06481,-0.40415 -8.19114,-0.56459 -12.375,-0.53125 z m 223.28125,13.875 c -5.10757,-0.0697 -10.14511,0.38112 -14.96875,1.40625 -13.24053,2.81391 -29.18448,8.3695 -23.15625,33.375 6.688,23.94114 44.07834,10.85372 58.6875,19.625 14.60916,8.77129 17.46979,17.24531 20.21875,32.8125 3.14193,17.79258 -11.89407,41.3339 11.1875,47.25 28.33547,7.26275 38.52624,-13.44798 36.96875,-46.3125 -1.08214,-22.83409 -10.65783,-37.53657 -16.375,-47.09375 -14.90364,-24.91386 -44.98165,-40.68597 -72.5625,-41.0625 z m -219.875,153.96875 c 103.48736,-0.84286 188.32652,49.76636 194.9375,119.96875 7.17124,76.15174 -80.43421,146.49902 -195.65625,157.125 -115.22204,10.62598 -214.42251,-42.47326 -221.59375,-118.625 -7.17124,-76.15174 80.40296,-146.49902 195.625,-157.125 9.00172,-0.83015 17.91738,-1.27232 26.6875,-1.34375 z m -22.9375,56.46875 c -12.40096,0.0151 -24.24182,1.83627 -34.40625,5.15625 -75.40822,24.63035 -93.91308,88.01258 -76.625,135.46875 17.28808,47.45617 88.74577,67.32898 145.90625,43.03125 57.16049,-24.29774 82.91096,-82.08106 62.75,-127.15625 -18.07004,-40.40038 -60.42212,-56.54545 -97.625,-56.5 z m 18.0625,64.21875 c 4.83834,0.0559 9.09786,2.19823 11.09375,6.125 3.19342,6.28283 -0.61185,14.71516 -8.5,18.84375 -7.88815,4.12859 -16.86908,2.40783 -20.0625,-3.875 -3.19342,-6.28283 0.61185,-14.74641 8.5,-18.875 2.95805,-1.54822 6.06575,-2.25227 8.96875,-2.21875 z m -55.03125,17.15625 c 12.24494,-0.0377 22.79216,5.2548 27.875,13.3125 8.13254,12.89231 6.23919,37.79022 -14.40625,49.5625 -20.64543,11.77227 -45.70199,6.43964 -51.90625,-6.34375 -8.83215,-18.19796 -5.27043,-38.38398 15.375,-50.15625 7.74204,-4.4146 15.71554,-6.35238 23.0625,-6.375 z"
       id="path3068"
       inkscape:connector-curvature="0" />
  </g>
</svg>
